<svg width="13" height="13" viewBox="0 0 13 13" fill="none" xmlns="http://www.w3.org/2000/svg">
<path d="M4.3625 7.75C4.1875 7.46875 4.06875 7.14375 4.0375 6.8125H8.9625C8.93125 7.14375 8.8125 7.46875 8.66875 7.75H4.3625ZM6.5 9C5.85625 9 5.3 8.75625 4.8625 8.375H8.14375C7.7 8.75625 7.14375 9 6.5 9ZM6.5 4C7.14375 4 7.7 4.24375 8.14375 4.625H4.8625C5.3 4.24375 5.85625 4 6.5 4ZM4.3625 5.25H8.6375C8.8125 5.53125 8.93125 5.85625 8.9625 6.1875H4.0375C4.06875 5.85625 4.1875 5.53125 4.3625 5.25ZM0.875 0.875V12.125H12.125V0.875H0.875ZM6.5 10.25C4.41875 10.25 2.75 8.58125 2.75 6.5C2.75 4.41875 4.41875 2.75 6.5 2.75C8.58125 2.75 10.25 4.41875 10.25 6.5C10.25 8.58125 8.58125 10.25 6.5 10.25Z" fill="black"/>
</svg>
