<svg width="16" height="16" viewBox="0 0 16 16" fill="none" xmlns="http://www.w3.org/2000/svg">
<path fill-rule="evenodd" clip-rule="evenodd" d="M11.3177 0C11.6574 0 11.9331 0.250045 11.9331 0.558137L11.9335 1.18906C13.1315 1.26356 14.1265 1.63575 14.8307 2.27578C15.5995 2.97606 16.004 3.98294 16 5.19075V11.9799C16 14.4595 14.2637 16 11.4699 16H4.53003C1.7362 16 0 14.438 0 11.9234V5.18926C0 2.85044 1.54835 1.34916 4.07357 1.18932L4.07408 0.558137C4.07408 0.250045 4.34977 0 4.68946 0C5.02915 0 5.30484 0.250045 5.30484 0.558137L5.30459 1.17506H10.7019L10.7023 0.558137C10.7023 0.250045 10.978 0 11.3177 0ZM14.7692 6.6262H1.23076V11.9234C1.23076 13.8329 2.40245 14.8837 4.53003 14.8837H11.4699C13.5975 14.8837 14.7692 13.8523 14.7692 11.9799L14.7692 6.6262ZM11.6522 11.3088C11.9919 11.3088 12.2676 11.5589 12.2676 11.867C12.2676 12.175 11.9919 12.4251 11.6522 12.4251C11.3125 12.4251 11.0336 12.175 11.0336 11.867C11.0336 11.5589 11.3051 11.3088 11.6448 11.3088H11.6522ZM8.01121 11.3088C8.3509 11.3088 8.62659 11.5589 8.62659 11.867C8.62659 12.175 8.3509 12.4251 8.01121 12.4251C7.67152 12.4251 7.39255 12.175 7.39255 11.867C7.39255 11.5589 7.66413 11.3088 8.00383 11.3088H8.01121ZM4.36257 11.3088C4.70226 11.3088 4.97795 11.5589 4.97795 11.867C4.97795 12.175 4.70226 12.4251 4.36257 12.4251C4.02288 12.4251 3.74308 12.175 3.74308 11.867C3.74308 11.5589 4.01549 11.3088 4.35518 11.3088H4.36257ZM11.6522 8.41641C11.9919 8.41641 12.2676 8.66645 12.2676 8.97454C12.2676 9.28264 11.9919 9.53268 11.6522 9.53268C11.3125 9.53268 11.0336 9.28264 11.0336 8.97454C11.0336 8.66645 11.3051 8.41641 11.6448 8.41641H11.6522ZM8.01121 8.41641C8.3509 8.41641 8.62659 8.66645 8.62659 8.97454C8.62659 9.28264 8.3509 9.53268 8.01121 9.53268C7.67152 9.53268 7.39255 9.28264 7.39255 8.97454C7.39255 8.66645 7.66413 8.41641 8.00383 8.41641H8.01121ZM4.36257 8.41641C4.70226 8.41641 4.97795 8.66645 4.97795 8.97454C4.97795 9.28264 4.70226 9.53268 4.36257 9.53268C4.02288 9.53268 3.74308 9.28264 3.74308 8.97454C3.74308 8.66645 4.01549 8.41641 4.35518 8.41641H4.36257ZM10.7019 2.29134H5.30459L5.30484 3.00724C5.30484 3.31533 5.02915 3.56538 4.68946 3.56538C4.34977 3.56538 4.07408 3.31533 4.07408 3.00724L4.07364 2.30823C2.23551 2.44828 1.23076 3.45885 1.23076 5.18926V5.50993H14.7692L14.7692 5.18926C14.7725 4.27019 14.5 3.55578 13.9593 3.06462C13.4847 2.63285 12.7908 2.37498 11.9338 2.30859L11.9331 3.00724C11.9331 3.31533 11.6574 3.56538 11.3177 3.56538C10.978 3.56538 10.7023 3.31533 10.7023 3.00724L10.7019 2.29134Z" fill="#56A9F7"/>
</svg>
