<svg width="47" height="43" viewBox="0 0 47 43" fill="none" xmlns="http://www.w3.org/2000/svg">
<path opacity="0.1" d="M23.2276 43.0001C34.9341 43.0001 44.424 33.3742 44.424 21.5C44.424 9.62589 34.9341 0 23.2276 0C11.5212 0 2.03125 9.62589 2.03125 21.5C2.03125 33.3742 11.5212 43.0001 23.2276 43.0001Z" fill="#031A2F"/>
<path d="M46.8579 15.1388L40.8309 33.6006C40.7156 33.954 40.5328 34.2809 40.2929 34.5627C40.053 34.8444 39.7607 35.0755 39.4328 35.2427C39.1048 35.4098 38.7476 35.5099 38.3816 35.537C38.0155 35.5641 37.6478 35.5179 37.2993 35.4008L23.5351 30.778L22.6777 27.0511L27.4347 24.1205L25.534 18.85L25.9123 18.3471L26.5257 17.5318L28.5711 14.8121L26.609 9.06352L29.1011 6.1886L45.0837 11.5566C45.4321 11.6736 45.7544 11.8591 46.0321 12.1025C46.3099 12.3458 46.5376 12.6423 46.7024 12.975C46.8671 13.3076 46.9657 13.6699 46.9924 14.0412C47.019 14.4125 46.9734 14.7855 46.8579 15.1388Z" fill="#C1D8ED"/>
<path d="M38.927 30.6943C38.7754 31.1671 38.4942 31.5864 38.1164 31.9032C37.7385 32.2199 37.2796 32.4211 36.7933 32.4832C36.3069 32.5454 35.8132 32.4658 35.3697 32.2539C34.9262 32.042 34.5514 31.7065 34.2889 31.2866C33.8873 30.6317 33.742 29.8197 33.9971 29.0385C34.1191 28.6658 34.3225 28.326 34.5921 28.0442C34.8617 27.7624 35.1905 27.546 35.5541 27.4111C36.0118 27.2331 36.51 27.1909 36.9905 27.2893C37.4709 27.3877 37.9139 27.6228 38.2676 27.9671C38.6213 28.3114 38.8711 28.7506 38.9879 29.2335C39.1047 29.7164 39.0835 30.2231 38.927 30.6943Z" fill="black"/>
<path d="M33.3647 30.9758C32.9057 31.1533 32.4065 31.1951 31.925 31.0964C31.4436 30.9977 30.9996 30.7625 30.6446 30.4181C30.2896 30.0737 30.0382 29.6342 29.9196 29.1507C29.801 28.6672 29.82 28.1595 29.9745 27.6865C30.1289 27.2136 30.4124 26.7947 30.7921 26.4786C31.1718 26.1625 31.6321 25.9622 32.1196 25.9008C32.6071 25.8394 33.1017 25.9195 33.5461 26.1319C33.9904 26.3442 34.3663 26.68 34.6301 27.1003C33.9225 27.3828 33.4501 27.9871 33.195 28.7685C32.94 29.5498 32.9529 30.3521 33.3647 30.9758Z" fill="#262626"/>
<path d="M26.9451 18.1833C26.9135 18.2801 26.8527 18.3644 26.7712 18.4241C26.6898 18.4838 26.5918 18.516 26.4913 18.516C26.4404 18.5158 26.3898 18.5074 26.3415 18.4911L25.9121 18.3471L26.5255 17.5317L26.6417 17.571C26.762 17.6114 26.8615 17.6986 26.9184 17.8134C26.9753 17.9283 26.9849 18.0613 26.9451 18.1833Z" fill="black"/>
<path d="M33.8817 20.0025L28.9662 18.3515C28.7157 18.2674 28.4455 18.4052 28.3625 18.6592C28.2796 18.9132 28.4154 19.1874 28.6659 19.2715L33.5814 20.9225C33.8318 21.0066 34.1021 20.8688 34.185 20.6148C34.2679 20.3607 34.1321 20.0866 33.8817 20.0025Z" fill="black"/>
<path d="M41.1209 22.434L36.2054 20.7831C35.955 20.6989 35.6847 20.8367 35.6018 21.0907C35.5189 21.3448 35.6547 21.6189 35.9051 21.703L40.8206 23.354C41.0711 23.4381 41.3413 23.3003 41.4243 23.0463C41.5072 22.7923 41.3714 22.5181 41.1209 22.434Z" fill="black"/>
<path d="M18.2684 30.8252L20.7011 33.7506L6.11371 36.0112C5.75091 36.0675 5.38073 36.0507 5.02433 35.9618C4.66792 35.873 4.33226 35.7138 4.03651 35.4933C3.74076 35.2729 3.49072 34.9955 3.30066 34.6771C3.1106 34.3586 2.98424 34.0053 2.92881 33.6373L0.0330238 14.412C-0.022394 14.044 -0.00581652 13.6686 0.0818097 13.3071C0.169436 12.9457 0.326395 12.6053 0.543724 12.3053C0.761053 12.0054 1.0345 11.7519 1.34844 11.5591C1.66238 11.3664 2.01068 11.2383 2.37344 11.1821L14.6508 9.27966L13.7178 12.9889L18.0397 17.2063L17.4347 20.5718L17.2533 21.5803L17.1416 22.2024L21.1942 26.023L18.2684 30.8252Z" fill="#C1D8ED"/>
<path d="M7.96305 13.8552L4.35191 14.4148C3.7277 14.5115 3.29899 15.1032 3.39437 15.7364L3.7157 17.8697C3.81108 18.5028 4.39441 18.9377 5.01862 18.8409L8.62976 18.2813C9.25397 18.1845 9.68268 17.5928 9.58731 16.9597L9.26597 14.8264C9.1706 14.1933 8.58726 13.7584 7.96305 13.8552Z" fill="black"/>
<path d="M10.0175 21.7212L4.89898 22.5145C4.63818 22.5549 4.45906 22.8021 4.49891 23.0666C4.53876 23.3312 4.78248 23.5129 5.04328 23.4724L10.1618 22.6792C10.4226 22.6388 10.6018 22.3915 10.5619 22.127C10.5221 21.8625 10.2783 21.6808 10.0175 21.7212Z" fill="black"/>
<path d="M17.4345 20.5718L17.2531 21.5803L12.5813 22.3039C12.5193 22.3136 12.4561 22.3108 12.3952 22.2957C12.3342 22.2806 12.2768 22.2534 12.2263 22.2158C12.1757 22.1781 12.133 22.1307 12.1005 22.0763C12.0681 22.0219 12.0465 21.9615 12.0371 21.8986C12.0332 21.8741 12.0313 21.8493 12.0312 21.8246C12.0313 21.7089 12.0723 21.597 12.1467 21.5093C12.221 21.4216 12.3239 21.3639 12.4367 21.3465L17.4345 20.5718Z" fill="black"/>
<path d="M15.555 6.632L13.1914 4.59591L15.2714 3.57043L15.555 6.632Z" fill="#C1D8ED"/>
<path d="M20.3623 7.25668L21.9845 5.8667L22.1262 7.39748L20.3623 7.25668Z" fill="#C1D8ED"/>
</svg>
