<svg width="20" height="20" viewBox="0 0 20 20" fill="none" xmlns="http://www.w3.org/2000/svg">
<path d="M17.318 11.5H13.443C12.9295 11.5 12.4369 11.7034 12.073 12.0656C11.709 12.4279 11.5034 12.9195 11.501 13.433V17.308C11.501 17.8231 11.7056 18.317 12.0698 18.6812C12.434 19.0454 12.9279 19.25 13.443 19.25H17.318C17.8313 19.2474 18.3227 19.0416 18.6847 18.6777C19.0468 18.3138 19.25 17.8213 19.25 17.308V13.433C19.25 12.9206 19.0464 12.4292 18.6841 12.0669C18.3218 11.7045 17.8304 11.501 17.318 11.501M6.557 11.5H2.682C2.16859 11.5029 1.6772 11.7089 1.3152 12.073C0.953189 12.437 0.749992 12.9296 0.75 13.443V17.318C0.75 17.8304 0.95355 18.3218 1.31587 18.6841C1.67819 19.0464 2.1696 19.25 2.682 19.25H6.557C7.07032 19.25 7.56277 19.0468 7.92668 18.6847C8.29059 18.3227 8.49636 17.8313 8.499 17.318V13.443C8.499 12.9279 8.2944 12.434 7.9302 12.0698C7.56601 11.7056 7.07205 11.501 6.557 11.501M6.557 0.75H2.682C2.42829 0.75 2.17706 0.799973 1.94266 0.897065C1.70825 0.994157 1.49527 1.13647 1.31587 1.31587C1.13647 1.49527 0.994157 1.70825 0.897065 1.94266C0.799973 2.17706 0.75 2.42829 0.75 2.682V6.557C0.749993 7.07032 0.953223 7.56277 1.31526 7.92668C1.67729 8.29059 2.16868 8.49636 2.682 8.499H6.557C7.07205 8.499 7.56601 8.2944 7.9302 7.9302C8.2944 7.56601 8.499 7.07205 8.499 6.557V2.682C8.49636 2.16868 8.29059 1.67729 7.92668 1.31526C7.56277 0.953223 7.07032 0.749993 6.557 0.75ZM17.318 0.75H13.443C12.9297 0.749993 12.4372 0.953223 12.0733 1.31526C11.7094 1.67729 11.5036 2.16868 11.501 2.682V6.557C11.5013 7.07197 11.706 7.56577 12.0701 7.92991C12.4342 8.29405 12.928 8.49873 13.443 8.499H17.318C17.8313 8.49636 18.3227 8.29059 18.6847 7.92668C19.0468 7.56277 19.25 7.07032 19.25 6.557V2.682C19.25 2.1696 19.0464 1.67819 18.6841 1.31587C18.3218 0.95355 17.8304 0.75 17.318 0.75Z" stroke="white" stroke-width="1.5" stroke-linecap="round" stroke-linejoin="round"/>
</svg>
