<svg width="49" height="45" viewBox="0 0 49 45" fill="none" xmlns="http://www.w3.org/2000/svg">
<rect width="48.913" height="45" rx="5" fill="#0B96FD" fill-opacity="0.5"/>
<path d="M23.086 12.1304H27.7817C27.7817 11.5078 27.5343 10.9106 27.094 10.4703C26.6537 10.03 26.0565 9.78261 25.4338 9.78261C24.8112 9.78261 24.214 10.03 23.7737 10.4703C23.3334 10.9106 23.086 11.5078 23.086 12.1304ZM21.5208 12.1304C21.5208 11.0926 21.9331 10.0973 22.6669 9.3635C23.4007 8.62966 24.396 8.21739 25.4338 8.21739C26.4717 8.21739 27.4669 8.62966 28.2008 9.3635C28.9346 10.0973 29.3469 11.0926 29.3469 12.1304H37.173C37.3805 12.1304 37.5796 12.2129 37.7264 12.3597C37.8731 12.5064 37.9556 12.7055 37.9556 12.913C37.9556 13.1206 37.8731 13.3197 37.7264 13.4664C37.5796 13.6132 37.3805 13.6957 37.173 13.6957H35.5232L33.6544 29.8863C33.5223 31.0307 32.974 32.0867 32.114 32.8532C31.2539 33.6198 30.1421 34.0434 28.99 34.0435H21.8777C20.7256 34.0434 19.6138 33.6198 18.7537 32.8532C17.8937 32.0867 17.3454 31.0307 17.2133 29.8863L15.3445 13.6957H13.6947C13.4872 13.6957 13.2881 13.6132 13.1413 13.4664C12.9946 13.3197 12.9121 13.1206 12.9121 12.913C12.9121 12.7055 12.9946 12.5064 13.1413 12.3597C13.2881 12.2129 13.4872 12.1304 13.6947 12.1304H21.5208ZM18.7676 29.7078C18.8559 30.4707 19.2216 31.1745 19.795 31.6853C20.3685 32.1962 21.1097 32.4784 21.8777 32.4783H28.99C29.758 32.4784 30.4992 32.1962 31.0727 31.6853C31.6461 31.1745 32.0118 30.4707 32.1001 29.7078L33.9471 13.6957H16.9206L18.7676 29.7078ZM23.086 17.6087C23.2936 17.6087 23.4926 17.6911 23.6394 17.8379C23.7862 17.9847 23.8686 18.1837 23.8686 18.3913V27.7826C23.8686 27.9902 23.7862 28.1892 23.6394 28.336C23.4926 28.4828 23.2936 28.5652 23.086 28.5652C22.8785 28.5652 22.6794 28.4828 22.5326 28.336C22.3859 28.1892 22.3034 27.9902 22.3034 27.7826V18.3913C22.3034 18.1837 22.3859 17.9847 22.5326 17.8379C22.6794 17.6911 22.8785 17.6087 23.086 17.6087ZM28.5643 18.3913C28.5643 18.1837 28.4818 17.9847 28.3351 17.8379C28.1883 17.6911 27.9892 17.6087 27.7817 17.6087C27.5741 17.6087 27.3751 17.6911 27.2283 17.8379C27.0815 17.9847 26.9991 18.1837 26.9991 18.3913V27.7826C26.9991 27.9902 27.0815 28.1892 27.2283 28.336C27.3751 28.4828 27.5741 28.5652 27.7817 28.5652C27.9892 28.5652 28.1883 28.4828 28.3351 28.336C28.4818 28.1892 28.5643 27.9902 28.5643 27.7826V18.3913Z" fill="white"/>
</svg>
