<svg width="18" height="16" viewBox="0 0 18 16" fill="none" xmlns="http://www.w3.org/2000/svg">
<mask id="path-1-inside-1_433_5247" fill="white">
<path d="M6.22223 7.11112C6.92546 7.11112 7.61289 6.90259 8.1976 6.5119C8.7823 6.12121 9.23803 5.56591 9.50714 4.91622C9.77625 4.26652 9.84667 3.55162 9.70947 2.86191C9.57228 2.1722 9.23365 1.53866 8.73639 1.0414C8.23914 0.544147 7.6056 0.205513 6.91589 0.0683207C6.22618 -0.0688714 5.51127 0.00154056 4.86158 0.270653C4.21188 0.539765 3.65658 0.99549 3.26589 1.5802C2.8752 2.16491 2.66667 2.85234 2.66667 3.55556C2.66667 4.49856 3.04127 5.40293 3.70807 6.06972C4.37487 6.73652 5.27924 7.11112 6.22223 7.11112ZM13.3334 8.8889C13.8608 8.8889 14.3763 8.73251 14.8149 8.43949C15.2534 8.14647 15.5952 7.72999 15.797 7.24272C15.9989 6.75545 16.0517 6.21928 15.9488 5.70199C15.8459 5.18471 15.5919 4.70955 15.219 4.33661C14.846 3.96367 14.3709 3.7097 13.8536 3.6068C13.3363 3.50391 12.8001 3.55672 12.3129 3.75855C11.8256 3.96039 11.4091 4.30218 11.1161 4.74071C10.8231 5.17924 10.6667 5.69482 10.6667 6.22223C10.6667 6.92948 10.9476 7.60776 11.4477 8.10785C11.9478 8.60795 12.6261 8.8889 13.3334 8.8889ZM16.8889 15.1111C17.1247 15.1111 17.3508 15.0175 17.5175 14.8508C17.6842 14.6841 17.7778 14.458 17.7778 14.2222C17.7771 13.3915 17.5436 12.5776 17.1037 11.8728C16.6638 11.1681 16.0352 10.6007 15.2892 10.2351C14.5432 9.86951 13.7097 9.72032 12.8832 9.80446C12.0567 9.8886 11.2704 10.2027 10.6133 10.7111C9.74269 9.84389 8.63473 9.25388 7.42919 9.0155C6.22365 8.77713 4.97451 8.90107 3.83932 9.37169C2.70412 9.84231 1.7337 10.6385 1.05044 11.66C0.367173 12.6814 0.0016624 13.8823 0 15.1111C0 15.3469 0.0936506 15.573 0.26035 15.7397C0.427049 15.9064 0.653142 16 0.88889 16H11.5556C11.7913 16 12.0174 15.9064 12.1841 15.7397C12.3508 15.573 12.4445 15.3469 12.4445 15.1111"/>
</mask>
<path d="M2.66667 3.55556H1.66667H2.66667ZM13.3334 8.8889V7.8889V8.8889ZM10.6667 6.22223H9.66668H10.6667ZM17.7778 14.2222H18.7778V14.2214L17.7778 14.2222ZM10.6133 10.7111L9.90763 11.4196L10.5303 12.0398L11.2253 11.502L10.6133 10.7111ZM0 15.1111L-1 15.1098V15.1111H0ZM6.22223 8.11112C7.12324 8.11112 8.00401 7.84394 8.75317 7.34337L7.64202 5.68043C7.22177 5.96124 6.72767 6.11112 6.22223 6.11112V8.11112ZM8.75317 7.34337C9.50232 6.8428 10.0862 6.13132 10.431 5.2989L8.58326 4.53353C8.38984 5.0005 8.06229 5.39962 7.64202 5.68043L8.75317 7.34337ZM10.431 5.2989C10.7758 4.46648 10.866 3.55051 10.6903 2.66682L8.72869 3.057C8.8273 3.55273 8.77669 4.06657 8.58326 4.53353L10.431 5.2989ZM10.6903 2.66682C10.5145 1.78312 10.0806 0.971401 9.4435 0.334294L8.02929 1.74851C8.38669 2.10591 8.63008 2.56127 8.72869 3.057L10.6903 2.66682ZM9.4435 0.334294C8.80639 -0.302813 7.99467 -0.736687 7.11098 -0.912465L6.7208 1.04911C7.21653 1.14771 7.67189 1.39111 8.02929 1.74851L9.4435 0.334294ZM7.11098 -0.912465C6.22729 -1.08824 5.31131 -0.998027 4.47889 -0.653227L5.24426 1.19453C5.71123 1.00111 6.22507 0.950499 6.7208 1.04911L7.11098 -0.912465ZM4.47889 -0.653227C3.64647 -0.308427 2.93499 0.27547 2.43442 1.02463L4.09736 2.13577C4.37817 1.71551 4.77729 1.38796 5.24426 1.19453L4.47889 -0.653227ZM2.43442 1.02463C1.93385 1.77379 1.66667 2.65456 1.66667 3.55556H3.66667C3.66667 3.05012 3.81655 2.55603 4.09736 2.13577L2.43442 1.02463ZM1.66667 3.55556C1.66667 4.76377 2.14663 5.9225 3.00096 6.77683L4.41518 5.36262C3.93592 4.88336 3.66667 4.23334 3.66667 3.55556H1.66667ZM3.00096 6.77683C3.8553 7.63116 5.01402 8.11112 6.22223 8.11112V6.11112C5.54445 6.11112 4.89444 5.84188 4.41518 5.36262L3.00096 6.77683ZM13.3334 9.8889C14.0586 9.8889 14.7675 9.67386 15.3704 9.27096L14.2593 7.60802C13.9852 7.79116 13.663 7.8889 13.3334 7.8889V9.8889ZM15.3704 9.27096C15.9734 8.86806 16.4434 8.29541 16.7209 7.62541L14.8732 6.86004C14.747 7.16458 14.5334 7.42488 14.2593 7.60802L15.3704 9.27096ZM16.7209 7.62541C16.9984 6.95541 17.0711 6.21817 16.9296 5.5069L14.968 5.89708C15.0323 6.22038 14.9993 6.5555 14.8732 6.86004L16.7209 7.62541ZM16.9296 5.5069C16.7881 4.79564 16.4389 4.1423 15.9261 3.62951L14.5119 5.04372C14.745 5.27681 14.9037 5.57378 14.968 5.89708L16.9296 5.5069ZM15.9261 3.62951C15.4133 3.11671 14.76 2.7675 14.0487 2.62602L13.6585 4.58759C13.9818 4.6519 14.2788 4.81063 14.5119 5.04372L15.9261 3.62951ZM14.0487 2.62602C13.3374 2.48454 12.6002 2.55715 11.9302 2.83467L12.6955 4.68243C13.0001 4.55628 13.3352 4.52328 13.6585 4.58759L14.0487 2.62602ZM11.9302 2.83467C11.2602 3.11219 10.6875 3.58216 10.2846 4.18514L11.9476 5.29628C12.1307 5.0222 12.391 4.80858 12.6955 4.68243L11.9302 2.83467ZM10.2846 4.18514C9.88173 4.78812 9.66668 5.49703 9.66668 6.22223H11.6667C11.6667 5.8926 11.7644 5.57036 11.9476 5.29628L10.2846 4.18514ZM9.66668 6.22223C9.66668 7.19469 10.053 8.12733 10.7406 8.81496L12.1548 7.40075C11.8423 7.08819 11.6667 6.66426 11.6667 6.22223H9.66668ZM10.7406 8.81496C11.4283 9.5026 12.3609 9.8889 13.3334 9.8889V7.8889C12.8913 7.8889 12.4674 7.71331 12.1548 7.40075L10.7406 8.81496ZM16.8889 16.1111C17.3899 16.1111 17.8703 15.9121 18.2246 15.5579L16.8103 14.1437C16.8312 14.1228 16.8594 14.1111 16.8889 14.1111V16.1111ZM18.2246 15.5579C18.5788 15.2037 18.7778 14.7232 18.7778 14.2222H16.7778C16.7778 14.1928 16.7895 14.1645 16.8103 14.1437L18.2246 15.5579ZM18.7778 14.2214C18.7769 13.2037 18.4908 12.2066 17.952 11.3433L16.2554 12.4023C16.5963 12.9485 16.7773 13.5793 16.7778 14.2231L18.7778 14.2214ZM17.952 11.3433C17.4132 10.48 16.6431 9.78499 15.7293 9.33714L14.8492 11.1331C15.4273 11.4164 15.9145 11.8561 16.2554 12.4023L17.952 11.3433ZM15.7293 9.33714C14.8154 8.88929 13.7944 8.70653 12.7819 8.8096L12.9845 10.7993C13.625 10.7341 14.271 10.8497 14.8492 11.1331L15.7293 9.33714ZM12.7819 8.8096C11.7695 8.91267 10.8062 9.29745 10.0013 9.92027L11.2253 11.502C11.7345 11.108 12.344 10.8645 12.9845 10.7993L12.7819 8.8096ZM11.3191 10.0026C10.3085 8.99602 9.02245 8.31118 7.62316 8.0345L7.23521 9.99651C8.24701 10.1966 9.1769 10.6918 9.90763 11.4196L11.3191 10.0026ZM7.62316 8.0345C6.22387 7.75781 4.77399 7.90167 3.45635 8.44793L4.22229 10.2955C5.17504 9.90047 6.22342 9.79645 7.23521 9.99651L7.62316 8.0345ZM3.45635 8.44793C2.13872 8.99419 1.01233 9.91838 0.219259 11.104L1.88162 12.216C2.45507 11.3587 3.26953 10.6904 4.22229 10.2955L3.45635 8.44793ZM0.219259 11.104C-0.573816 12.2895 -0.99807 13.6834 -0.999999 15.1098L0.999999 15.1125C1.00139 14.0811 1.30816 13.0732 1.88162 12.216L0.219259 11.104ZM-1 15.1111C-1 15.6121 -0.800993 16.0925 -0.446757 16.4468L0.967457 15.0326C0.988294 15.0534 1 15.0817 1 15.1111H-1ZM-0.446757 16.4468C-0.0925198 16.801 0.387927 17 0.88889 17V15C0.918356 15 0.946618 15.0117 0.967457 15.0326L-0.446757 16.4468ZM0.88889 17H11.5556V15H0.88889V17ZM11.5556 17C12.0565 17 12.537 16.801 12.8912 16.4468L11.477 15.0326C11.4978 15.0117 11.5261 15 11.5556 15V17ZM12.8912 16.4468C13.2455 16.0925 13.4445 15.6121 13.4445 15.1111H11.4445C11.4445 15.0817 11.4562 15.0534 11.477 15.0326L12.8912 16.4468Z" fill="#121212" fill-opacity="0.6" mask="url(#path-1-inside-1_433_5247)"/>
</svg>
