<svg width="17" height="14" viewBox="0 0 17 14" fill="none" xmlns="http://www.w3.org/2000/svg">
<path d="M0.531224 12.4062H16.4687V13.4687H0.531224V12.4062ZM15.1302 2.05231C14.3537 1.83599 13.5281 1.85133 12.8058 2.09547L12.7761 2.10543L10.6145 3.13274L4.30658 0.624971C4.03122 0.514333 3.73031 0.483255 3.43814 0.535277C3.14597 0.587299 2.87429 0.72033 2.65403 0.919217L1.80954 1.67618C1.72046 1.75605 1.6505 1.85496 1.60486 1.96556C1.55922 2.07617 1.53907 2.19563 1.54592 2.31508C1.55276 2.43454 1.58641 2.55092 1.64438 2.65559C1.70235 2.76026 1.78314 2.85053 1.88076 2.9197L5.791 5.69077L4.29111 6.47646L3.10327 5.39115C2.87616 5.18404 2.59407 5.04692 2.29091 4.99627C1.98775 4.94562 1.67641 4.98358 1.39431 5.1056L0.748339 5.38567C0.647376 5.42942 0.556568 5.49361 0.481635 5.57418C0.406703 5.65476 0.349271 5.74999 0.312957 5.85386C0.276643 5.95773 0.262234 6.06799 0.270638 6.17771C0.279042 6.28742 0.310077 6.3942 0.361788 6.49133L2.77967 11.0344L15.9474 4.54407C16.7359 4.17296 16.832 3.57968 16.6586 3.14758C16.4664 2.66852 15.9093 2.26932 15.1302 2.05231ZM15.4922 3.58407L15.4872 3.58639L3.23376 9.62604L1.43495 6.24596L1.81678 6.08038C1.91082 6.0397 2.0146 6.02704 2.11566 6.04393C2.21672 6.06081 2.31075 6.10653 2.38645 6.17557L4.12417 7.76331L7.82064 5.82697L2.76652 2.24522L3.36322 1.71038C3.43664 1.64409 3.5272 1.59975 3.62458 1.58241C3.72197 1.56507 3.82227 1.57543 3.91406 1.6123L10.6524 4.29116L13.1742 3.09269C13.6874 2.92638 14.2985 2.9212 14.8563 3.07898C15.3156 3.20894 15.5596 3.39773 15.6423 3.49674C15.5956 3.53122 15.5453 3.56053 15.4922 3.58417L15.4922 3.58407Z" fill="#121212" fill-opacity="0.7"/>
</svg>
