<svg width="70" height="44" viewBox="0 0 70 44" fill="none" xmlns="http://www.w3.org/2000/svg">
<g clip-path="url(#clip0_907_1974)">
<path d="M70.0001 44H0.772461C1.53102 42.0811 2.93156 40.4534 4.9066 39.9705C7.79535 39.265 10.8524 41.2048 13.7347 40.4754C15.3722 40.0615 16.6614 38.8552 18.0161 37.8535C23.1268 34.0739 30.1304 32.9568 36.1779 34.9574C39.339 36.0026 42.2193 37.8305 45.4575 38.6074C49.6448 39.6123 54.0237 38.779 58.3299 38.6417C62.5237 38.5079 68.5326 40.203 70.0001 44Z" fill="#F3F5FD"/>
<path d="M5.20272 40.2293C4.65322 40.0728 4.23952 39.5851 4.07521 39.0419C3.9109 38.4988 3.96877 37.9094 4.12931 37.3651C4.26031 36.921 4.45884 36.4917 4.50775 36.0316C4.67069 34.4991 3.17215 32.9334 3.87732 31.5603C4.10535 31.1161 4.54645 30.7691 4.62543 30.277C4.69037 29.87 4.48839 29.4744 4.38792 29.0745C4.24959 28.5242 4.31967 27.8998 4.67959 27.4591C5.03951 27.0184 5.71975 26.8259 6.21554 27.1081C6.86421 27.4771 6.92045 28.3884 6.75374 29.1115C6.58702 29.8347 6.27801 30.5786 6.48175 31.2923C6.67587 31.9726 7.30772 32.4849 7.42098 33.1829C7.51522 33.7632 7.22959 34.329 7.10411 34.9034C6.90694 35.8063 7.10762 36.7422 7.11626 37.6659C7.1249 38.5896 6.86219 39.6257 5.20272 40.2293Z" fill="#8DDBE0"/>
<path d="M4.35444 40.3171C4.02743 40.214 3.73398 40.0264 3.5042 39.7737C3.27443 39.5209 3.11662 39.212 3.04696 38.8788C2.93942 38.3291 3.07145 37.7117 2.76822 37.2395C2.35725 36.5996 1.93576 36.5272 1.42386 35.9632C0.637442 35.0963 0.609841 34.7119 0.661732 33.1057C0.683618 32.4264 -0.26185 31.6599 0.0711225 31.0073C0.364544 30.4323 1.2563 30.4294 1.76203 30.8339C2.26776 31.2385 2.48987 31.8871 2.71022 32.4933C2.93058 33.0996 3.20829 33.7411 3.76681 34.0702C4.1018 34.2676 4.54037 34.3588 4.7254 34.6988C4.87406 34.9722 4.79918 35.3057 4.73943 35.6105C4.58921 36.3767 4.62682 37.3112 5.2751 37.754C5.56735 37.9537 5.95052 38.0224 6.19082 38.2816C6.42858 38.5378 6.46684 38.9174 6.4506 39.2653C6.41899 39.934 6.2332 40.5867 5.90753 41.1731" fill="#C1D8ED"/>
<path d="M5.13626 40.8506C4.5526 40.1891 4.47012 39.1412 4.94312 38.3978C5.33999 37.7741 6.07959 37.3444 6.23481 36.6229C6.37314 35.9805 5.98951 35.3167 6.1044 34.6697C6.22935 33.9664 6.88426 33.505 7.40505 33.0111C7.54046 32.891 7.65695 32.7515 7.75062 32.5971C7.97955 32.1884 7.91571 31.6871 7.99339 31.226C8.14224 30.3429 8.87573 29.5597 9.76638 29.4137C10.5474 29.2856 11.1069 29.7307 11.1069 30.5503C11.1069 31.5213 10.3736 31.9374 9.99954 32.377C9.4622 33.0134 9.17702 33.8222 9.19733 34.6521C9.2237 35.579 9.62162 36.5659 9.19649 37.3919C8.88475 37.9979 8.21816 38.3211 7.69464 38.7609C7.29895 39.0971 6.97683 39.5101 6.74811 39.9745C6.51939 40.4388 6.3889 40.9447 6.3647 41.4609" fill="#DEE8F5"/>
<path d="M7.65512 39.3282H2.94531V44H7.65512V39.3282Z" fill="#0CBC8B"/>
<g opacity="0.42">
<path d="M7.65512 40.2391H2.94531V41.151H7.65512V40.2391Z" fill="white"/>
</g>
<path d="M60.3921 0H20.0557V28.9754H60.3921V0Z" fill="#DEE8F5"/>
<path d="M60.3921 0H20.0557V2.38684H60.3921V0Z" fill="#C1D8ED"/>
<path d="M59.0412 1.79231C59.3747 1.79231 59.645 1.52419 59.645 1.19346C59.645 0.862719 59.3747 0.594604 59.0412 0.594604C58.7078 0.594604 58.4375 0.862719 58.4375 1.19346C58.4375 1.52419 58.7078 1.79231 59.0412 1.79231Z" fill="white"/>
<path d="M18.5164 43.3034L17.1621 43.1436C17.223 42.6351 17.292 42.0244 17.2967 41.9242C17.2967 41.9306 17.2967 41.9359 17.2967 41.94H18.6605C18.6602 41.9802 18.6602 42.1037 18.5164 43.3034Z" fill="#E98862"/>
<path d="M13.0826 43.4648L11.7188 43.4604C11.7188 43.4604 11.7233 42.0634 11.7233 41.9397H13.0871C13.0871 42.0638 13.0826 43.4648 13.0826 43.4648Z" fill="#E98862"/>
<path d="M16.6173 42.8758L19.0199 42.8353C18.9071 39.9988 18.9002 37.0234 18.865 34.1799C18.396 31.1151 18.1491 27.7498 17.5703 24.707L12.5614 24.4626C12.5614 24.4626 12.4185 26.4679 12.3692 27.2683C12.1284 31.1516 11.6607 38.3452 11.3672 42.7991L13.7616 42.9997C14.193 38.6329 14.8606 32.2701 15.2713 27.6828C15.7429 29.9162 16.0636 32.2288 16.4737 34.443C16.5556 37.2148 16.6251 40.1123 16.6173 42.8758Z" fill="#262626"/>
<path d="M14.7408 43.988C14.7775 43.9878 14.8137 43.9802 14.8473 43.9655C14.8808 43.9508 14.911 43.9294 14.9358 43.9026C14.9607 43.8759 14.9797 43.8443 14.9917 43.8099C15.0037 43.7756 15.0084 43.7391 15.0055 43.7028C15.0016 43.6525 14.9832 43.6044 14.9526 43.5642C14.9221 43.5239 14.8805 43.4931 14.8329 43.4755L13.2455 42.9481C13.2147 42.938 13.1821 42.9346 13.1499 42.9381C13.1177 42.9417 13.0867 42.9521 13.0589 42.9687C12.8407 43.1189 12.5796 43.1956 12.3141 43.1877C12.1074 43.1731 11.9089 43.1012 11.7413 42.9801C11.7266 42.9681 11.7087 42.9605 11.6898 42.9582C11.6709 42.9559 11.6517 42.959 11.6345 42.9671C11.6173 42.9752 11.6028 42.988 11.5926 43.004C11.5825 43.02 11.5771 43.0385 11.5771 43.0574V43.8273C11.5771 43.8501 11.5817 43.8725 11.5905 43.8935C11.5992 43.9145 11.6121 43.9335 11.6283 43.9496C11.6446 43.9656 11.6638 43.9783 11.685 43.9869C11.7062 43.9956 11.7289 43.9999 11.7518 43.9999L14.7408 43.988Z" fill="#C1D8ED"/>
<path d="M20.1783 43.988C20.215 43.9878 20.2512 43.9802 20.2848 43.9655C20.3183 43.9508 20.3485 43.9294 20.3733 43.9026C20.3982 43.8759 20.4172 43.8443 20.4292 43.8099C20.4412 43.7756 20.4459 43.7391 20.443 43.7028C20.4391 43.6525 20.4207 43.6044 20.3901 43.5642C20.3595 43.5239 20.318 43.4931 20.2703 43.4755L18.683 42.9481C18.6522 42.938 18.6196 42.9346 18.5874 42.9381C18.5552 42.9417 18.5242 42.9521 18.4964 42.9687C18.2782 43.1189 18.0171 43.1956 17.7516 43.1877C17.5448 43.1731 17.3463 43.1012 17.1788 42.9801C17.164 42.9681 17.1462 42.9606 17.1273 42.9583C17.1084 42.956 17.0892 42.9591 17.072 42.9672C17.0548 42.9753 17.0403 42.9881 17.0301 43.004C17.02 43.02 17.0146 43.0385 17.0146 43.0574V43.8273C17.0146 43.8501 17.0192 43.8726 17.028 43.8935C17.0367 43.9145 17.0496 43.9336 17.0658 43.9496C17.0821 43.9656 17.1013 43.9783 17.1225 43.9869C17.1437 43.9956 17.1664 44 17.1893 43.9999L20.1783 43.988Z" fill="#C1D8ED"/>
<path d="M14.2464 14.8163C14.2464 14.8163 14.1648 14.0327 13.4706 14.0327C12.6463 14.0327 13.2092 16.2795 13.5698 17.6535C13.6083 17.8004 13.6151 17.9537 13.5898 18.1034C13.5644 18.2531 13.5075 18.3958 13.4228 18.5222C13.3381 18.6486 13.2275 18.7559 13.0981 18.837C12.9688 18.9181 12.8236 18.9713 12.6722 18.993C12.5262 19.014 12.3774 19.0054 12.2349 18.9677C12.0923 18.93 11.959 18.8639 11.8431 18.7734C11.7271 18.683 11.6308 18.5702 11.5602 18.4417C11.4895 18.3132 11.446 18.1719 11.4321 18.0262C11.2653 16.2644 11.3041 13.0138 13.1726 13.0763C14.3866 13.117 14.3866 14.3174 14.3866 14.3174L14.2464 14.8163Z" fill="#0F1011"/>
<path d="M14.2461 17.5099C14.2461 17.5099 14.7482 17.2457 14.6362 15.8893L15.6737 15.6985C15.6737 15.6985 15.5571 16.9146 16.0821 17.3007L14.2461 17.5099Z" fill="#E98862"/>
<g opacity="0.15">
<path d="M15.8698 17.0465L15.0078 16.3923L15.6848 16.3854C15.7044 16.6152 15.7671 16.8395 15.8698 17.0465Z" fill="black"/>
</g>
<path d="M14.0481 15.3633C14.1199 15.7749 14.3463 16.1645 14.7123 16.2974C15.1112 16.4544 15.5429 16.5122 15.9695 16.4658C17.1054 16.3735 16.8807 13.8117 16.3414 13.314C15.8022 12.8163 14.2194 13.1315 14.0269 13.9638C13.9274 14.3944 13.9797 14.9713 14.0481 15.3633Z" fill="#E98862"/>
<path d="M15.6732 15.0463C15.7252 15.0463 15.7673 15.0045 15.7673 14.953C15.7673 14.9014 15.7252 14.8596 15.6732 14.8596C15.6212 14.8596 15.5791 14.9014 15.5791 14.953C15.5791 15.0045 15.6212 15.0463 15.6732 15.0463Z" fill="#0F1011"/>
<path d="M16.4154 14.986C16.4674 14.986 16.5095 14.9442 16.5095 14.8927C16.5095 14.8411 16.4674 14.7993 16.4154 14.7993C16.3634 14.7993 16.3213 14.8411 16.3213 14.8927C16.3213 14.9442 16.3634 14.986 16.4154 14.986Z" fill="#0F1011"/>
<path d="M16.5787 14.6937H16.5781L16.3288 14.6906C16.3171 14.6904 16.3059 14.6857 16.2977 14.6773C16.2895 14.669 16.285 14.6578 16.2852 14.6462C16.2855 14.6346 16.2904 14.6236 16.2987 14.6155C16.3071 14.6075 16.3183 14.6029 16.33 14.6029L16.5793 14.6059C16.591 14.606 16.6022 14.6107 16.6105 14.619C16.6187 14.6273 16.6233 14.6385 16.6232 14.6501C16.6232 14.6617 16.6184 14.6729 16.6101 14.681C16.6017 14.6892 16.5904 14.6938 16.5787 14.6937Z" fill="#0F1011"/>
<path d="M15.4699 14.7838C15.4591 14.7838 15.4487 14.7798 15.4406 14.7727C15.4325 14.7655 15.4273 14.7557 15.4261 14.7451C15.4248 14.7344 15.4275 14.7237 15.4337 14.7149C15.4399 14.7061 15.4491 14.6998 15.4596 14.6973L15.7054 14.6387C15.711 14.6373 15.7169 14.6371 15.7226 14.638C15.7284 14.6389 15.7339 14.6409 15.7388 14.6439C15.7438 14.6469 15.7481 14.6509 15.7515 14.6555C15.755 14.6602 15.7574 14.6655 15.7588 14.6711C15.7601 14.6767 15.7604 14.6825 15.7595 14.6882C15.7586 14.6939 15.7565 14.6993 15.7535 14.7043C15.7505 14.7092 15.7465 14.7135 15.7418 14.7168C15.7371 14.7202 15.7318 14.7227 15.7261 14.724L15.4804 14.7827C15.4769 14.7834 15.4734 14.7838 15.4699 14.7838Z" fill="#0F1011"/>
<path d="M15.7168 15.6881C15.7168 15.6881 16.0642 15.7244 16.3078 15.64C16.3078 15.64 16.3058 15.867 16.0309 15.8893C15.756 15.9117 15.7168 15.6881 15.7168 15.6881Z" fill="white"/>
<path d="M14.8118 14.297C14.9109 16.1747 14.651 16.3685 14.651 16.3685C14.651 16.3685 13.7053 15.8042 13.5818 14.6766C13.4661 13.6196 14.2513 12.9953 14.7819 12.8778C16.7981 12.4306 17.0207 14.2514 17.0207 14.2514C16.0115 14.5087 14.5936 14.3346 14.5936 14.3346" fill="#0F1011"/>
<path d="M15.1828 15.1814C15.1879 15.2336 15.1824 15.2863 15.1668 15.3364C15.1511 15.3864 15.1256 15.4329 15.0917 15.4732C15.0577 15.5134 15.0161 15.5465 14.9691 15.5706C14.9222 15.5947 14.8709 15.6093 14.8182 15.6136C14.7655 15.6179 14.7125 15.6117 14.6622 15.5955C14.6119 15.5792 14.5654 15.5533 14.5254 15.519C14.4853 15.4848 14.4525 15.443 14.4289 15.3961C14.4052 15.3492 14.3912 15.2981 14.3877 15.2458C14.3825 15.1938 14.3879 15.1414 14.4035 15.0915C14.4192 15.0417 14.4448 14.9955 14.4789 14.9556C14.513 14.9158 14.5547 14.8832 14.6018 14.8598C14.6488 14.8363 14.7001 14.8225 14.7527 14.8191C15.037 14.8103 15.1649 14.9636 15.1828 15.1814Z" fill="#E98862"/>
<g opacity="0.15">
<path d="M16.0908 15.4707C16.0831 15.4706 16.0756 15.4679 16.0698 15.4628C16.0639 15.4578 16.0601 15.4509 16.059 15.4433C16.0578 15.4357 16.0594 15.4279 16.0635 15.4214C16.0676 15.4149 16.074 15.4101 16.0813 15.4078L16.2727 15.3494L16.1387 15.0537C16.1353 15.0459 16.1352 15.0372 16.1382 15.0293C16.1413 15.0214 16.1474 15.015 16.1552 15.0115C16.163 15.008 16.1719 15.0077 16.1799 15.0107C16.1879 15.0137 16.1944 15.0196 16.198 15.0273L16.347 15.3563C16.3488 15.3605 16.3498 15.365 16.3498 15.3695C16.3498 15.3741 16.3488 15.3786 16.3469 15.3828C16.345 15.3869 16.3423 15.3907 16.3388 15.3937C16.3354 15.3967 16.3313 15.399 16.3269 15.4003L16.1003 15.4693C16.0972 15.4702 16.094 15.4707 16.0908 15.4707Z" fill="black"/>
</g>
<path d="M13.6235 14.208C13.6004 14.208 13.5776 14.2031 13.5566 14.1937C13.5356 14.1842 13.5168 14.1705 13.5016 14.1533C13.4863 14.1362 13.475 14.116 13.4682 14.0941C13.4614 14.0723 13.4593 14.0492 13.4622 14.0266C13.5089 13.7298 13.6549 13.4572 13.8767 13.2527C13.9093 13.2258 13.9513 13.2125 13.9936 13.2158C14.0359 13.2192 14.0752 13.2388 14.1031 13.2705C14.131 13.3022 14.1453 13.3436 14.1429 13.3856C14.1404 13.4276 14.1215 13.467 14.0901 13.4954C13.9285 13.6482 13.8212 13.8489 13.7843 14.0673C13.7793 14.1062 13.7602 14.1419 13.7306 14.1678C13.701 14.1936 13.6629 14.208 13.6235 14.208Z" fill="#262626"/>
<path d="M21.1494 17.4675C21.1494 17.4675 21.1592 16.6938 21.7167 16.7341C22.0685 16.7594 23.7398 16.6825 23.7647 16.8335C23.8263 17.2071 22.2974 17.2984 22.1587 17.6466L21.1494 17.4675Z" fill="#E98862"/>
<path d="M21.5195 16.7588C21.5195 16.7588 22.2956 16.5076 22.4863 16.5527C22.6552 16.5924 22.3032 16.8651 22.3032 16.8651L21.5195 16.7588Z" fill="#E98862"/>
<path d="M17.8838 24.5539C17.6117 25.1743 12.602 25.432 12.5306 24.3407C12.4851 23.6462 13.097 23.04 13.097 21.6866C13.097 20.3331 11.8388 18.9313 12.8617 17.9167C13.1585 17.6223 13.3416 17.1056 13.9664 17.105C14.0131 17.4664 16.2252 17.4677 16.242 17.1134C16.3265 17.1146 16.3921 17.1159 16.433 17.1179C18.5879 17.21 17.4379 19.6425 17.4172 21.4295C17.3918 23.5206 18.1644 23.9149 17.8838 24.5539Z" fill="white"/>
<path d="M16.2415 17.1134C16.2246 17.4677 16.0304 17.9888 15.431 18.0281C14.6322 18.0803 14.0126 17.4664 13.9658 17.105H13.9678C14.7543 17.105 15.783 17.1063 16.2415 17.1134Z" fill="#E98862"/>
<path d="M21.084 17.0155L19.6937 19.5903L17.5531 17.5188C17.3599 17.2756 17.0554 17.1239 16.5899 17.1036C16.5545 17.1021 16.1893 17.0907 16.1677 17.1123C16.0372 17.2417 15.9652 19.5231 16.0301 20.7907C16.1011 22.1628 16.0281 23.8764 16.0941 24.8616C16.0984 24.9262 16.1161 24.9893 16.1462 25.0468C16.1763 25.1043 16.2181 25.155 16.269 25.1956C16.3199 25.2362 16.3787 25.266 16.4417 25.2829C16.5048 25.2998 16.5707 25.3036 16.6353 25.294C17.3355 25.1878 17.8816 25.0069 17.9612 24.8254C18.2417 24.1864 17.5943 23.5202 17.6196 21.4291C17.6261 20.8663 17.7224 20.2373 17.7896 19.6373L19.3906 21.1866C19.4662 21.2598 19.5581 21.3146 19.6587 21.3466C19.7594 21.3786 19.8662 21.3869 19.9707 21.3709C20.0752 21.3549 20.1745 21.315 20.2608 21.2544C20.3471 21.1939 20.418 21.1142 20.4679 21.0217L22.2863 17.6539L21.084 17.0155Z" fill="#367CFF"/>
<path d="M19.0295 21.9043L15.4099 22.0138L14.6343 20.404C14.5092 19.1706 14.3435 18.1195 14.2674 17.5682C14.17 17.0575 14.2219 17.0937 13.9776 17.0935C13.3529 17.0942 12.8289 17.2955 12.5321 17.5899C11.5093 18.6046 12.7646 20.3336 12.7646 21.6864C12.7646 23.0393 12.1477 23.6461 12.1931 24.3405C12.2211 24.7743 12.4447 25.323 14.13 25.4406C14.2665 25.4501 14.4014 25.4073 14.507 25.321C14.6126 25.2347 14.6807 25.1114 14.6973 24.9768C14.7575 24.456 14.789 23.9323 14.7918 23.4081C14.8499 23.4236 14.9098 23.4315 14.9699 23.4319C14.9771 23.4319 14.9844 23.4319 14.9916 23.4315L19.0726 23.3081L19.0295 21.9043Z" fill="#367CFF"/>
<path d="M13.8046 18.6341L13.9657 18.1104L13.6553 17.9088L13.9105 17.0952C14.0666 17.0888 14.223 17.0921 14.3788 17.1049C14.532 17.6132 14.697 19.7957 14.7567 20.648L13.8046 18.6341Z" fill="#367CFF"/>
<path d="M16.4941 18.1104L16.7344 18.8919L16.0402 20.9907C16.0402 20.9907 15.9018 17.8199 16.0856 17.1094C16.1504 17.1007 16.2156 17.0959 16.281 17.0949C16.4144 17.093 16.5515 17.1019 16.5515 17.1019L16.8046 17.9089L16.4941 18.1104Z" fill="#367CFF"/>
<g opacity="0.24">
<path d="M13.8046 18.6341L13.9657 18.1104L13.6553 17.9088L13.9105 17.0952C14.0666 17.0888 14.223 17.0921 14.3788 17.1049C14.532 17.6132 14.697 19.7957 14.7567 20.648L13.8046 18.6341Z" fill="white"/>
</g>
<g opacity="0.24">
<path d="M16.4941 18.1104L16.7344 18.8919L16.0402 20.9907C16.0402 20.9907 15.9018 17.8199 16.0856 17.1094C16.1504 17.1007 16.2156 17.0959 16.281 17.0949C16.4144 17.093 16.5515 17.1019 16.5515 17.1019L16.8046 17.9089L16.4941 18.1104Z" fill="white"/>
</g>
<path d="M18.7385 18.5554L17.95 21.8389C17.9377 21.89 17.9373 21.9432 17.9487 21.9945C17.9601 22.0458 17.9831 22.0938 18.0159 22.135C18.0487 22.1763 18.0905 22.2096 18.1381 22.2325C18.1858 22.2554 18.238 22.2673 18.291 22.2673H22.94C23.0168 22.2673 23.0915 22.2423 23.1526 22.1961C23.2137 22.1499 23.2578 22.0851 23.2781 22.0116L24.1867 18.728C24.201 18.6764 24.2031 18.6222 24.1928 18.5697C24.1825 18.5172 24.1601 18.4677 24.1274 18.4251C24.0947 18.3826 24.0525 18.3481 24.0042 18.3243C23.9558 18.3006 23.9026 18.2882 23.8486 18.2882H19.0796C19.0008 18.2882 18.9242 18.3146 18.8623 18.3631C18.8004 18.4115 18.7568 18.4793 18.7385 18.5554Z" fill="#9EBCEA"/>
<path d="M21.9138 21.8586H16.2949C16.1811 21.8586 16.0889 21.9501 16.0889 22.063C16.0889 22.1758 16.1811 22.2673 16.2949 22.2673H21.9138C22.0276 22.2673 22.1198 22.1758 22.1198 22.063C22.1198 21.9501 22.0276 21.8586 21.9138 21.8586Z" fill="#9EBCEA"/>
<path d="M21.2588 20.7907C21.5625 20.7907 21.8086 20.5465 21.8086 20.2453C21.8086 19.9441 21.5625 19.7 21.2588 19.7C20.9551 19.7 20.709 19.9441 20.709 20.2453C20.709 20.5465 20.9551 20.7907 21.2588 20.7907Z" fill="white"/>
<path d="M20.1997 22.6983C19.9081 22.8768 19.4567 22.9612 19.0632 22.9921L19.041 22.2809C19.2262 22.2757 19.5106 22.2564 19.7892 22.2674C19.9151 22.1655 19.9876 22.1353 20.1168 22.0071C20.2544 21.8707 20.6153 21.7887 20.6835 22.0071C20.7517 22.2255 20.4556 22.5411 20.1997 22.6983Z" fill="#E98862"/>
<path d="M54.6502 8.27173H25.7969V21.1147H54.6502V8.27173Z" fill="#0CBC8B"/>
<path d="M50.421 12.8697L46.1086 16.5528C46.0415 16.6102 45.9549 16.6403 45.8664 16.6368C45.7778 16.6334 45.6939 16.5967 45.6315 16.5343C45.5692 16.4718 45.533 16.3882 45.5304 16.3003C45.5278 16.2125 45.5589 16.1269 45.6175 16.0609L49.3719 11.8187C49.4367 11.7456 49.5153 11.6858 49.6034 11.6427C49.6914 11.5997 49.7872 11.5743 49.8851 11.568C49.9831 11.5616 50.0813 11.5745 50.1742 11.6059C50.2672 11.6372 50.353 11.6864 50.4268 11.7506C50.5005 11.8148 50.5608 11.8929 50.6042 11.9802C50.6476 12.0676 50.6732 12.1625 50.6796 12.2597C50.686 12.3568 50.673 12.4543 50.6414 12.5465C50.6098 12.6387 50.5602 12.7238 50.4954 12.797C50.4722 12.8228 50.4473 12.8471 50.421 12.8697Z" fill="white"/>
<path d="M48.5943 12.9001L45.2951 12.5812C45.2514 12.577 45.2074 12.5834 45.1668 12.5998C45.1262 12.6163 45.0902 12.6423 45.062 12.6756L44.7332 13.0621C44.7041 13.0965 44.6841 13.1376 44.6752 13.1816C44.6663 13.2257 44.6687 13.2712 44.6821 13.3141C44.6956 13.357 44.7197 13.3958 44.7522 13.427C44.7848 13.4582 44.8247 13.4808 44.8684 13.4928L47.6805 14.2604C47.7394 14.2765 47.8022 14.2723 47.8584 14.2484C47.9146 14.2246 47.961 14.1825 47.99 14.129L48.5943 12.9001Z" fill="white"/>
<path d="M45.8701 15.5962L44.0945 15.4246C44.0677 15.422 44.0407 15.426 44.0159 15.4361C43.991 15.4462 43.9689 15.4621 43.9516 15.4826L43.6413 15.849C43.6235 15.8701 43.6113 15.8953 43.6058 15.9223C43.6003 15.9493 43.6018 15.9772 43.61 16.0035C43.6183 16.0298 43.6331 16.0537 43.653 16.0728C43.673 16.0919 43.6975 16.1058 43.7243 16.1131L45.4489 16.5839C45.485 16.5938 45.5235 16.5912 45.558 16.5765C45.5925 16.5619 45.6209 16.5361 45.6387 16.5033L45.9999 15.8377C46.0129 15.8139 46.0197 15.7872 46.0198 15.7601C46.0198 15.733 46.0131 15.7064 46.0003 15.6825C45.9874 15.6585 45.9688 15.6382 45.9461 15.6231C45.9234 15.6081 45.8973 15.5988 45.8701 15.5962Z" fill="white"/>
<path d="M49.3582 13.5798L49.631 16.857C49.6346 16.9003 49.6275 16.9439 49.6103 16.9839C49.5932 17.0239 49.5664 17.0592 49.5324 17.0867L49.1118 17.4694C49.0767 17.4978 49.035 17.5169 48.9905 17.5251C48.9459 17.5333 48.9001 17.5303 48.857 17.5163C48.814 17.5023 48.7752 17.4778 48.7442 17.4451C48.7132 17.4124 48.691 17.3724 48.6797 17.329L47.9471 14.5285C47.9318 14.4698 47.937 14.4076 47.9618 14.3522C47.9867 14.2968 48.0298 14.2514 48.0841 14.2235L49.3582 13.5798Z" fill="white"/>
<path d="M46.5743 16.3048L46.7212 18.0684C46.7235 18.095 46.7191 18.1217 46.7086 18.1462C46.698 18.1708 46.6816 18.1924 46.6608 18.2093L46.2868 18.5116C46.2653 18.529 46.2397 18.5408 46.2124 18.5458C46.1851 18.5508 46.157 18.549 46.1306 18.5404C46.1042 18.5318 46.0805 18.5168 46.0615 18.4967C46.0424 18.4767 46.0288 18.4522 46.0219 18.4255L45.5726 16.7081C45.5633 16.6721 45.5665 16.6341 45.5817 16.6001C45.597 16.5662 45.6234 16.5384 45.6566 16.5213L46.3329 16.1728C46.3571 16.1603 46.384 16.154 46.4113 16.1543C46.4386 16.1546 46.4653 16.1616 46.4892 16.1747C46.5131 16.1878 46.5334 16.2065 46.5482 16.2292C46.5631 16.2519 46.572 16.2778 46.5743 16.3048Z" fill="white"/>
<path d="M41.0254 10.7333H27.877V11.5359H41.0254V10.7333Z" fill="white"/>
<path d="M41.0254 13.1057H27.877V13.9083H41.0254V13.1057Z" fill="white"/>
<path d="M41.0254 15.4783H27.877V16.2809H41.0254V15.4783Z" fill="white"/>
<path d="M41.0254 17.8507H27.877V18.6533H41.0254V17.8507Z" fill="white"/>
<path d="M59.5816 31.59C62.7927 31.59 65.3957 29.008 65.3957 25.8229C65.3957 22.6378 62.7927 20.0558 59.5816 20.0558C56.3706 20.0558 53.7676 22.6378 53.7676 25.8229C53.7676 29.008 56.3706 31.59 59.5816 31.59Z" fill="#8DDBE0"/>
<path d="M58.5848 28.9717C58.4636 28.9717 58.347 28.9257 58.2589 28.8432L56.0503 26.7761C56.005 26.7337 55.9685 26.6828 55.943 26.6264C55.9175 26.5699 55.9034 26.5091 55.9016 26.4472C55.8998 26.3854 55.9102 26.3238 55.9324 26.266C55.9546 26.2082 55.988 26.1553 56.0308 26.1103C56.0736 26.0653 56.1249 26.0292 56.1818 26.0038C56.2387 25.9785 56.3001 25.9646 56.3624 25.9628C56.4247 25.961 56.4868 25.9714 56.5451 25.9934C56.6034 26.0154 56.6567 26.0485 56.7021 26.091L58.5585 27.8284L62.4357 23.5907C62.5207 23.4996 62.6385 23.4455 62.7635 23.4401C62.8884 23.4347 63.0105 23.4785 63.1032 23.5619C63.1958 23.6453 63.2516 23.7616 63.2583 23.8855C63.265 24.0094 63.2221 24.1309 63.139 24.2237L58.9367 28.8169C58.8943 28.8632 58.8429 28.9008 58.7857 28.9272C58.7285 28.9537 58.6665 28.9686 58.6034 28.9711C58.597 28.9715 58.5908 28.9717 58.5848 28.9717Z" fill="white"/>
<path d="M58.9702 37.5729H58.3115V44H58.9702V37.5729Z" fill="#C1D8ED"/>
<path d="M58.4282 37.5729H57.7695V44H58.4282V37.5729Z" fill="#DEE8F5"/>
<path d="M67.1743 37.5729H66.5156V44H67.1743V37.5729Z" fill="#C1D8ED"/>
<path d="M66.6323 37.5729H65.9736V44H66.6323V37.5729Z" fill="#DEE8F5"/>
<path d="M60.7768 37.5729H60.1182V44H60.7768V37.5729Z" fill="#C1D8ED"/>
<path d="M60.2348 37.5729H59.5762V44H60.2348V37.5729Z" fill="#DEE8F5"/>
<path d="M68.9809 37.5729H68.3223V44H68.9809V37.5729Z" fill="#C1D8ED"/>
<path d="M68.4389 37.5729H67.7803V44H68.4389V37.5729Z" fill="#DEE8F5"/>
<path d="M68.9806 33.4589H60.1221V37.727H68.9806V33.4589Z" fill="#C1D8ED"/>
<path d="M66.628 33.4589H57.7695V37.727H66.628V33.4589Z" fill="#DEE8F5"/>
<g opacity="0.53">
<path d="M66.1515 34.0656H58.2461V37.1013H66.1515V34.0656Z" fill="#F3F5FD"/>
</g>
<path d="M62.1987 35.9317C62.3927 35.9317 62.5498 35.7758 62.5498 35.5835C62.5498 35.3911 62.3927 35.2352 62.1987 35.2352C62.0048 35.2352 61.8477 35.3911 61.8477 35.5835C61.8477 35.7758 62.0048 35.9317 62.1987 35.9317Z" fill="white"/>
</g>
<defs>
<clipPath id="clip0_907_1974">
<rect width="70" height="44" fill="white"/>
</clipPath>
</defs>
</svg>
