<svg width="15" height="20" viewBox="0 0 15 20" fill="none" xmlns="http://www.w3.org/2000/svg">
<path d="M6.43744 2.07881C6.54599 1.96057 6.64437 1.89749 6.70084 1.86946C6.88718 1.9446 7.44782 2.33058 7.49027 3.31531L7.70483 8.33686L8.04695 8.61617C8.76313 9.20042 10.0489 10.245 11.1514 11.1402C12.1323 11.9373 13.0588 12.69 13.1367 12.7551C13.1897 12.8004 13.2025 12.8108 13.2163 12.9117C13.2481 13.138 13.2851 13.54 13.3132 13.8759C12.3706 13.4914 10.382 12.6765 9.27264 12.2163L7.84574 11.6235L7.91176 13.1676L7.97624 15.9547L7.99279 16.3499L8.27804 16.6234C8.50586 16.8416 8.92379 17.2232 9.2919 17.5601C9.54864 17.7945 9.782 18.0073 9.90855 18.1269C9.91154 18.1356 9.96706 18.0893 9.97109 18.1021C9.89152 18.0872 9.8058 18.071 9.71607 18.0548C8.96599 17.9163 7.92824 17.7249 7.60706 17.6623L7.37196 17.6163L7.1417 17.6836C6.30453 17.9287 5.36159 18.1859 4.78073 18.3378C4.78511 18.3181 4.83411 18.3437 4.83739 18.331L4.85953 18.3069C4.96691 18.1899 5.14692 17.9989 5.34895 17.785C5.61297 17.5051 5.91286 17.1878 6.13877 16.9417C6.22534 16.8474 6.30153 16.763 6.36201 16.6942L6.6225 16.397L6.60562 16.0022L6.44375 13.2272L6.37831 11.6887L5.00918 12.3939C3.98033 12.9238 2.00103 13.931 1.07362 14.4007C1.07303 14.0613 1.07535 13.6551 1.08704 13.4275C1.09043 13.3641 1.10102 13.322 1.11882 13.3026L1.14302 13.2777C1.22025 13.2013 2.19699 12.2676 3.14125 11.3649C4.1436 10.4066 5.27484 9.32501 5.91685 8.709L6.23751 8.40083L6.02256 3.37824C5.99294 2.67333 6.26962 2.26163 6.43744 2.07881ZM5.71206 1.4129C5.31867 1.84145 5.00038 2.51868 5.0391 3.42009L5.23471 7.9985C3.91536 9.26499 0.526429 12.4995 0.445659 12.5827C0.427813 12.6003 0.410394 12.6183 0.39342 12.6367C0.286706 12.7529 0.124717 12.9742 0.103742 13.376C0.0793257 13.8478 0.0918402 14.89 0.0918402 14.89C0.103258 15.1491 0.208067 15.3713 0.380649 15.4996C0.485017 15.577 0.706021 15.6847 1.01203 15.5348C1.19806 15.4439 4.11806 13.9602 5.45994 13.2691L5.62181 16.044C5.56532 16.1085 5.49429 16.1873 5.41321 16.2757C5.01432 16.7102 4.3817 17.3709 4.1338 17.641C4.101 17.6767 4.0747 17.7054 4.05677 17.7263C3.98389 17.8108 3.78729 17.9438 3.75046 18.7368L3.7509 18.796C3.76193 19.0541 3.86717 19.2088 3.95319 19.2932C4.04193 19.38 4.19607 19.4763 4.42334 19.4414C4.56046 19.4209 6.14723 19.0011 7.41821 18.6289C7.92865 18.7285 10.2386 19.1514 10.3622 19.1763C10.5452 19.2149 10.7182 19.1622 10.8486 19.0289L10.8591 19.0175C10.9817 18.884 11.0413 18.6862 11.0341 18.4323C10.9386 17.6448 10.7066 17.5284 10.6308 17.4559C10.394 17.2275 9.35822 16.2953 8.95925 15.913L8.89443 13.1259C10.2809 13.7016 13.2767 14.9278 13.4698 15.0032C13.7882 15.1256 13.9988 14.9992 14.0958 14.9128C14.112 14.8989 14.1273 14.8836 14.1417 14.868C14.273 14.7249 14.3419 14.5148 14.332 14.2817C14.332 14.2817 14.2569 13.2467 14.1905 12.7754C14.1247 12.304 13.8857 12.1006 13.7727 12.0048C13.6956 11.9374 10.0779 9.00343 8.66881 7.85361L8.47296 3.27398C8.40319 1.65062 7.25955 0.84874 6.65729 0.875017C6.39047 0.88573 6.02707 1.06978 5.71206 1.4129Z" fill="#121212" fill-opacity="0.6"/>
</svg>
