<svg width="13" height="13" viewBox="0 0 13 13" fill="none" xmlns="http://www.w3.org/2000/svg">
<path fill-rule="evenodd" clip-rule="evenodd" d="M1.8125 0.875C1.56386 0.875 1.3254 0.973772 1.14959 1.14959C0.973772 1.3254 0.875 1.56386 0.875 1.8125V11.1875C0.875 11.4361 0.973772 11.6746 1.14959 11.8504C1.3254 12.0262 1.56386 12.125 1.8125 12.125H11.1875C11.4361 12.125 11.6746 12.0262 11.8504 11.8504C12.0262 11.6746 12.125 11.4361 12.125 11.1875V1.8125C12.125 1.56386 12.0262 1.3254 11.8504 1.14959C11.6746 0.973772 11.4361 0.875 11.1875 0.875H1.8125ZM9 4H8.0625V9H9V4ZM9.625 4.9375H10.5625V6.1875H10.875V6.8125H10.5625V8.0625H9.625V4.9375ZM4 9H4.9375V4H4V9ZM3.375 8.0625H2.4375V6.8125H2.125V6.1875H2.4375V4.9375H3.375V8.0625ZM5.5625 6.8125H7.4375V6.1875H5.5625V6.8125Z" fill="black"/>
</svg>
