<svg width="95" height="125" viewBox="0 0 95 125" fill="none" xmlns="http://www.w3.org/2000/svg">
<path d="M47.5 0.125C39.6264 0.125 32.0753 3.25278 26.5078 8.82027C20.9403 14.3878 17.8125 21.9389 17.8125 29.8125V41.6875H11.875C8.72555 41.6875 5.7051 42.9386 3.47811 45.1656C1.25111 47.3926 0 50.4131 0 53.5625V112.938C0 116.087 1.25111 119.107 3.47811 121.334C5.7051 123.561 8.72555 124.812 11.875 124.812H83.125C86.2744 124.812 89.2949 123.561 91.5219 121.334C93.7489 119.107 95 116.087 95 112.938V53.5625C95 50.4131 93.7489 47.3926 91.5219 45.1656C89.2949 42.9386 86.2744 41.6875 83.125 41.6875H77.1875V29.8125C77.1875 25.9139 76.4196 22.0534 74.9277 18.4516C73.4357 14.8497 71.249 11.577 68.4922 8.82027C65.7355 6.06353 62.4628 3.87676 58.8609 2.38483C55.2591 0.89289 51.3986 0.125 47.5 0.125ZM47.5 11.4063C57.6531 11.4063 65.9062 19.6594 65.9062 29.8125V41.6875H29.0937V29.8125C29.0937 19.6594 37.3469 11.4063 47.5 11.4063ZM48.6281 56.5312C54.2094 56.5312 58.6625 57.7781 61.8688 60.2125C65.075 62.7062 66.6781 66.0312 66.6781 70.1875C66.6781 72.8 65.7875 75.1156 64.0656 77.3125C62.3438 79.45 60.0875 81.1125 57.3563 82.3594C55.8125 83.25 54.8031 84.1406 54.2688 85.15C53.7344 86.2188 53.4375 87.525 53.4375 89.1875H41.5625C41.5625 86.2188 42.1562 84.2 43.2844 82.775C44.5312 81.35 46.55 79.6875 49.6375 77.7875C51.1812 76.9563 52.4281 75.8875 53.4375 74.5813C54.2687 73.3344 54.7438 71.85 54.7438 70.1875C54.7438 68.4062 54.2094 67.1 53.1406 66.0906C52.0719 65.0219 50.4687 64.5469 48.6281 64.5469C47.025 64.5469 45.7188 64.9625 44.5312 65.7938C43.5812 66.625 42.9875 67.8719 42.9875 69.5344H31.2906C30.9938 65.4375 32.6562 61.875 35.9219 59.7375C39.1281 57.6 43.3437 56.5312 48.6281 56.5312ZM41.5625 95.125H53.4375V107H41.5625V95.125Z" fill="#FF8608"/>
<circle cx="47.3419" cy="82.6958" r="37.525" fill="white"/>
<g clip-path="url(#clip0_68_464)">
<path d="M70.1571 67.2713C71.1373 68.2262 71.6981 69.5313 71.7162 70.8996C71.7343 72.2679 71.2082 73.5873 70.2536 74.5678L46.0168 99.4491C45.4029 100.079 44.6558 100.565 43.8301 100.869C43.0044 101.173 42.1212 101.288 41.2451 101.207C40.369 101.125 39.5222 100.849 38.7668 100.398C38.0114 99.9464 37.3666 99.3318 36.8795 98.599L27.3883 84.3263C26.6306 83.1864 26.3567 81.7923 26.6269 80.4505C26.8971 79.1087 27.6893 77.9292 28.8292 77.1715C29.969 76.4138 31.3632 76.1399 32.705 76.4101C34.0467 76.6803 35.2262 77.4725 35.984 78.6123L42.4423 88.3264L62.8592 67.3674C63.332 66.8819 63.8959 66.4942 64.5186 66.2266C65.1413 65.959 65.8106 65.8167 66.4882 65.8078C67.1659 65.7989 67.8387 65.9235 68.4682 66.1746C69.0978 66.4257 69.6716 66.7984 70.1571 67.2713Z" fill="#FF8608"/>
</g>
<defs>
<clipPath id="clip0_68_464">
<rect width="47.1833" height="47.1833" fill="white" transform="translate(30.8955 53.0875) rotate(15)"/>
</clipPath>
</defs>
</svg>
