<svg width="15" height="13" viewBox="0 0 15 13" fill="none" xmlns="http://www.w3.org/2000/svg">
<path d="M3.75 7.73438V5.85938L2.57812 6.5L0.703125 3.25L4.82812 0.875H5.625C5.79167 1.375 5.98958 1.8125 6.21875 2.1875C6.44792 2.5625 6.875 2.75 7.5 2.75C8.125 2.75 8.55208 2.5625 8.78125 2.1875C9.01042 1.8125 9.20833 1.375 9.375 0.875H10.1719L14.2812 3.26562L12.4219 6.5L11.25 5.85938V8.85938L10.2656 9.71875C10.1927 9.78125 10.1094 9.83083 10.0156 9.8675C9.92188 9.90417 9.82812 9.92229 9.73438 9.92188C9.67188 9.92188 9.59896 9.90104 9.51562 9.85938C9.43229 9.81771 9.34896 9.76562 9.26562 9.70312L7.60938 8.28125C7.27604 7.98958 6.90104 7.77604 6.48438 7.64062C6.06771 7.50521 5.64583 7.4375 5.21875 7.4375C4.96875 7.4375 4.72125 7.46104 4.47625 7.50812C4.23125 7.55521 3.98917 7.63063 3.75 7.73438ZM2.90625 11.1094L2.09375 10.1562L3.45312 9C3.69271 8.79167 3.96625 8.63271 4.27375 8.52313C4.58125 8.41354 4.90146 8.35896 5.23438 8.35938C5.56771 8.35938 5.88542 8.41417 6.1875 8.52375C6.48958 8.63333 6.76042 8.79208 7 9L8.8125 10.5469C8.9375 10.651 9.08604 10.7319 9.25813 10.7894C9.43021 10.8469 9.60458 10.8754 9.78125 10.875C9.96875 10.875 10.1433 10.849 10.305 10.7969C10.4667 10.7448 10.6098 10.6615 10.7344 10.5469L12.0938 9.375L12.9062 10.3438L11.5469 11.5C11.3073 11.7083 11.0365 11.8646 10.7344 11.9688C10.4323 12.0729 10.1146 12.125 9.78125 12.125C9.44792 12.125 9.1275 12.0729 8.82 11.9688C8.5125 11.8646 8.23917 11.7083 8 11.5L6.1875 9.95312C6.0625 9.84896 5.91917 9.76812 5.7575 9.71062C5.59583 9.65312 5.42167 9.62458 5.235 9.625C5.05792 9.625 4.88333 9.65375 4.71125 9.71125C4.53917 9.76875 4.39083 9.84937 4.26625 9.95312L2.90625 11.1094Z" fill="black"/>
</svg>
