<svg width="20" height="20" viewBox="0 0 20 20" fill="none" xmlns="http://www.w3.org/2000/svg">
<path d="M7.2915 8.33333C7.2915 7.61504 7.57685 6.92616 8.08476 6.41825C8.59267 5.91034 9.28154 5.625 9.99984 5.625C10.7181 5.625 11.407 5.91034 11.9149 6.41825C12.4228 6.92616 12.7082 7.61504 12.7082 8.33333C12.7082 9.05163 12.4228 9.7405 11.9149 10.2484C11.407 10.7563 10.7181 11.0417 9.99984 11.0417C9.28154 11.0417 8.59267 10.7563 8.08476 10.2484C7.57685 9.7405 7.2915 9.05163 7.2915 8.33333Z" fill="#121212" fill-opacity="0.6"/>
<path fill-rule="evenodd" clip-rule="evenodd" d="M3.14511 7.3975C3.28335 5.72215 4.04648 4.16003 5.28301 3.02121C6.51954 1.8824 8.13907 1.25016 9.82011 1.25H10.1801C11.8612 1.25016 13.4807 1.8824 14.7172 3.02121C15.9537 4.16003 16.7169 5.72215 16.8551 7.3975C17.0095 9.26791 16.4321 11.1253 15.2443 12.5783L11.2501 17.4633C11.0987 17.6486 10.908 17.7979 10.6919 17.9005C10.4757 18.003 10.2394 18.0562 10.0001 18.0562C9.76084 18.0562 9.52456 18.003 9.30838 17.9005C9.09219 17.7979 8.9015 17.6486 8.75011 17.4633L4.75678 12.5783C3.5687 11.1254 2.99091 9.26802 3.14511 7.3975ZM10.0001 4.375C8.9503 4.375 7.94348 4.79204 7.20115 5.53437C6.45882 6.2767 6.04178 7.28352 6.04178 8.33333C6.04178 9.38315 6.45882 10.39 7.20115 11.1323C7.94348 11.8746 8.9503 12.2917 10.0001 12.2917C11.0499 12.2917 12.0567 11.8746 12.7991 11.1323C13.5414 10.39 13.9584 9.38315 13.9584 8.33333C13.9584 7.28352 13.5414 6.2767 12.7991 5.53437C12.0567 4.79204 11.0499 4.375 10.0001 4.375Z" fill="#121212" fill-opacity="0.6"/>
</svg>
