<svg width="13" height="16" viewBox="0 0 13 16" fill="none" xmlns="http://www.w3.org/2000/svg">
<path d="M2.59961 4.55005H7.79961V5.85005H2.59961V4.55005ZM2.59961 7.15005H10.3996V8.45005H2.59961V7.15005ZM2.59961 9.75005H4.54311V11.05H2.59961V9.75005Z" fill="white"/>
<path d="M7.8 1.95L5.85 0V1.3H1.3C0.955218 1.3 0.624558 1.43696 0.380761 1.68076C0.136964 1.92456 0 2.25522 0 2.6V13C0 13.3448 0.136964 13.6754 0.380761 13.9192C0.624558 14.163 0.955218 14.3 1.3 14.3H3.9V13H1.3V2.6H5.85V3.9L7.8 1.95ZM5.2 13.65L7.15 15.6V14.3H11.7C12.0448 14.3 12.3754 14.163 12.6192 13.9192C12.863 13.6754 13 13.3448 13 13V2.6C13 2.25522 12.863 1.92456 12.6192 1.68076C12.3754 1.43696 12.0448 1.3 11.7 1.3H9.1V2.6H11.7V13H7.15V11.7L5.2 13.65Z" fill="white"/>
</svg>
