<svg width="13" height="13" viewBox="0 0 13 13" fill="none" xmlns="http://www.w3.org/2000/svg">
<path d="M6.5 0.25C9.95187 0.25 12.75 3.04813 12.75 6.5C12.75 9.95187 9.95187 12.75 6.5 12.75C3.04813 12.75 0.25 9.95187 0.25 6.5C0.25 3.04813 3.04813 0.25 6.5 0.25ZM7.4375 3.375H5.875C5.54348 3.375 5.22554 3.5067 4.99112 3.74112C4.7567 3.97554 4.625 4.29348 4.625 4.625V9C4.625 9.16576 4.69085 9.32473 4.80806 9.44194C4.92527 9.55915 5.08424 9.625 5.25 9.625C5.41576 9.625 5.57473 9.55915 5.69194 9.44194C5.80915 9.32473 5.875 9.16576 5.875 9V7.75H7.4375C8.01766 7.75 8.57406 7.51953 8.9843 7.1093C9.39453 6.69906 9.625 6.14266 9.625 5.5625C9.625 4.98234 9.39453 4.42594 8.9843 4.0157C8.57406 3.60547 8.01766 3.375 7.4375 3.375ZM7.4375 4.625C7.68614 4.625 7.9246 4.72377 8.10041 4.89959C8.27623 5.0754 8.375 5.31386 8.375 5.5625C8.375 5.81114 8.27623 6.0496 8.10041 6.22541C7.9246 6.40123 7.68614 6.5 7.4375 6.5H5.875V4.625H7.4375Z" fill="black"/>
</svg>
