<svg width="15" height="15" viewBox="0 0 15 15" fill="none" xmlns="http://www.w3.org/2000/svg">
<path d="M1.25 11.875V10.625H13.75V11.875H1.25ZM1.875 10V9.375C1.875 8.04167 2.28396 6.86458 3.10187 5.84375C3.91979 4.82292 4.96917 4.17708 6.25 3.90625V3.75C6.25 3.40625 6.3725 3.11188 6.6175 2.86688C6.8625 2.62188 7.15667 2.49958 7.5 2.5C7.84375 2.5 8.13812 2.6225 8.38313 2.8675C8.62813 3.1125 8.75042 3.40667 8.75 3.75V3.90625C10.0417 4.17708 11.0938 4.82292 11.9062 5.84375C12.7187 6.86458 13.125 8.04167 13.125 9.375V10H1.875Z" fill="black"/>
</svg>
