<svg width="15" height="17" viewBox="0 0 15 17" fill="none" xmlns="http://www.w3.org/2000/svg">
<path d="M4.33333 8.50016V6.91683H5.91667V8.50016H4.33333ZM9.08333 8.50016V6.91683H10.6667V8.50016H9.08333ZM0.375 16.4168V10.0835H1.16667V6.91683C1.16667 6.046 1.3316 5.22451 1.66146 4.45237C1.99132 3.68023 2.44336 3.00732 3.01758 2.43362C3.59128 1.85993 4.26419 1.40815 5.03633 1.07829C5.80847 0.748427 6.62969 0.583496 7.5 0.583496C8.37083 0.583496 9.19232 0.748427 9.96446 1.07829C10.7366 1.40815 11.4095 1.86019 11.9832 2.43441C12.5569 3.00811 13.0087 3.68102 13.3385 4.45316C13.6684 5.2253 13.8333 6.04652 13.8333 6.91683V10.0835H14.625V16.4168H0.375ZM1.95833 14.8335H3.54167V11.6668H1.95833V14.8335ZM5.125 14.8335H6.70833V11.6668H5.125V14.8335ZM2.75 10.0835H6.70833V2.2262C5.57361 2.41093 4.63021 2.94187 3.87813 3.81904C3.12604 4.6962 2.75 5.7288 2.75 6.91683V10.0835ZM8.29167 10.0835H12.25V6.91683C12.25 5.72933 11.874 4.69673 11.1219 3.81904C10.3698 2.94134 9.42639 2.4104 8.29167 2.2262V10.0835ZM8.29167 14.8335H9.875V11.6668H8.29167V14.8335ZM11.4583 14.8335H13.0417V11.6668H11.4583V14.8335Z" fill="#121212" fill-opacity="0.4"/>
</svg>
