<svg width="17" height="19" viewBox="0 0 17 19" fill="none" xmlns="http://www.w3.org/2000/svg">
<path fill-rule="evenodd" clip-rule="evenodd" d="M8.5 6.53125C7.71264 6.53125 6.95753 6.84403 6.40078 7.40078C5.84403 7.95753 5.53125 8.71264 5.53125 9.5C5.53125 10.2874 5.84403 11.0425 6.40078 11.5992C6.95753 12.156 7.71264 12.4688 8.5 12.4688C9.28736 12.4688 10.0425 12.156 10.5992 11.5992C11.156 11.0425 11.4688 10.2874 11.4688 9.5C11.4688 8.71264 11.156 7.95753 10.5992 7.40078C10.0425 6.84403 9.28736 6.53125 8.5 6.53125ZM6.71875 9.5C6.71875 9.02758 6.90642 8.57452 7.24047 8.24047C7.57452 7.90642 8.02758 7.71875 8.5 7.71875C8.97242 7.71875 9.42548 7.90642 9.75953 8.24047C10.0936 8.57452 10.2812 9.02758 10.2812 9.5C10.2812 9.97242 10.0936 10.4255 9.75953 10.7595C9.42548 11.0936 8.97242 11.2812 8.5 11.2812C8.02758 11.2812 7.57452 11.0936 7.24047 10.7595C6.90642 10.4255 6.71875 9.97242 6.71875 9.5Z" fill="#121212" fill-opacity="0.6"/>
<path fill-rule="evenodd" clip-rule="evenodd" d="M8.47958 0.989502C8.12729 0.989502 7.83358 0.989502 7.59292 1.00534C7.34692 1.01558 7.1043 1.0664 6.87487 1.15575C6.61066 1.26507 6.37056 1.42537 6.1683 1.6275C5.96604 1.82962 5.80558 2.06961 5.69608 2.33375C5.58129 2.61084 5.55042 2.90375 5.53775 3.222C5.53648 3.33839 5.50567 3.45256 5.4482 3.55378C5.39074 3.655 5.3085 3.73997 5.20921 3.80071C5.10699 3.85653 4.99226 3.88544 4.8758 3.88475C4.75934 3.88406 4.64496 3.85378 4.54342 3.79675C4.26158 3.64792 3.99242 3.52838 3.69475 3.48879C3.41129 3.45151 3.12326 3.47042 2.84711 3.54445C2.57096 3.61848 2.31209 3.74618 2.08529 3.92025C1.89353 4.07453 1.7285 4.25935 1.59683 4.46729C1.46225 4.66838 1.315 4.9225 1.13925 5.22729L1.11946 5.26213C0.942916 5.56692 0.796457 5.82104 0.690374 6.03796C0.579541 6.26438 0.492457 6.48763 0.460791 6.73463C0.385266 7.30699 0.540179 7.88592 0.891458 8.34409C1.07433 8.58238 1.31262 8.75575 1.58179 8.92517C1.68214 8.9845 1.76575 9.06838 1.82475 9.16893C1.88375 9.26947 1.9162 9.38338 1.91904 9.49992C1.9162 9.61646 1.88375 9.73036 1.82475 9.83091C1.76575 9.93146 1.68214 10.0153 1.58179 10.0747C1.31262 10.2441 1.07512 10.4175 0.891458 10.6558C0.717383 10.8826 0.589685 11.1414 0.515656 11.4176C0.441626 11.6937 0.422714 11.9818 0.459999 12.2652C0.492458 12.5122 0.578749 12.7355 0.689582 12.9619C0.796457 13.1788 0.942916 13.4329 1.11946 13.7377L1.13925 13.7725C1.315 14.0773 1.46225 14.3315 1.59683 14.5325C1.73696 14.7408 1.88737 14.9284 2.08529 15.0788C2.31203 15.253 2.57087 15.3808 2.84702 15.455C3.12318 15.5292 3.41124 15.5482 3.69475 15.511C3.99242 15.4715 4.26158 15.3527 4.54342 15.2031C4.64484 15.1461 4.75908 15.1159 4.8754 15.1152C4.99173 15.1145 5.10632 15.1434 5.20842 15.1991C5.30826 15.2594 5.39102 15.3442 5.4488 15.4455C5.50659 15.5468 5.53748 15.6612 5.53854 15.7778C5.55042 16.0961 5.58129 16.389 5.69687 16.6661C5.8062 16.9303 5.9665 17.1704 6.16862 17.3727C6.37074 17.5749 6.61073 17.7354 6.87487 17.8449C7.10446 17.9399 7.34196 17.9771 7.59292 17.9937C7.83358 18.0103 8.12729 18.0103 8.47958 18.0103H8.51917C8.87146 18.0103 9.16517 18.0103 9.40583 17.9945C9.65758 17.9771 9.89429 17.9399 10.1239 17.8441C10.3881 17.7348 10.6282 17.5745 10.8304 17.3723C11.0327 17.1702 11.1932 16.9302 11.3027 16.6661C11.4175 16.389 11.4483 16.0961 11.461 15.7778C11.4621 15.6613 11.4929 15.547 11.5504 15.4456C11.6078 15.3442 11.6901 15.2591 11.7895 15.1983C11.8918 15.1426 12.0066 15.1139 12.123 15.1147C12.2395 15.1155 12.3539 15.1459 12.4553 15.2031C12.7372 15.3519 13.0063 15.4715 13.304 15.5103C13.8764 15.5858 14.4553 15.4309 14.9135 15.0796C15.1114 14.9276 15.2618 14.7408 15.4019 14.5325C15.5365 14.3315 15.6838 14.0773 15.8595 13.7725L15.8793 13.7377C16.0558 13.4329 16.2023 13.1788 16.3084 12.9619C16.4192 12.7355 16.5063 12.5114 16.538 12.2652C16.6135 11.6928 16.4586 11.1139 16.1073 10.6558C15.9244 10.4175 15.6861 10.2441 15.417 10.0747C15.3166 10.0153 15.233 9.93146 15.174 9.83091C15.115 9.73036 15.0826 9.61646 15.0797 9.49992C15.0797 9.27984 15.2 9.06134 15.417 8.92517C15.6861 8.75575 15.9236 8.58238 16.1073 8.34409C16.2814 8.11729 16.4091 7.85842 16.4831 7.58227C16.5571 7.30612 16.576 7.01809 16.5387 6.73463C16.5011 6.49136 16.4235 6.25597 16.3092 6.03796C16.174 5.77493 16.0306 5.51619 15.8793 5.26213L15.8595 5.22729C15.7149 4.96928 15.5623 4.71582 15.4019 4.46729C15.2703 4.25958 15.1052 4.07501 14.9135 3.92104C14.6867 3.74683 14.4279 3.61899 14.1517 3.54482C13.8756 3.47066 13.5875 3.45162 13.304 3.48879C13.0063 3.52838 12.7372 3.64713 12.4553 3.79675C12.3539 3.85364 12.2397 3.88384 12.1233 3.88453C12.007 3.88523 11.8925 3.85638 11.7903 3.80071C11.6907 3.74016 11.6082 3.65528 11.5504 3.55404C11.4927 3.45281 11.4616 3.33854 11.4602 3.222C11.4483 2.90375 11.4175 2.61084 11.3019 2.33375C11.1926 2.06953 11.0323 1.82944 10.8301 1.62718C10.628 1.42492 10.388 1.26446 10.1239 1.15496C9.89429 1.05996 9.65679 1.02275 9.40583 1.00613C9.16517 0.989502 8.87146 0.989502 8.51917 0.989502H8.47958ZM7.32929 2.25221C7.39025 2.22688 7.48287 2.20392 7.67367 2.19046C7.86921 2.177 8.12254 2.177 8.49937 2.177C8.87621 2.177 9.12954 2.177 9.32508 2.19046C9.51587 2.20392 9.6085 2.22688 9.66946 2.25221C9.9125 2.35275 10.1049 2.54513 10.2054 2.78817C10.2371 2.86417 10.2632 2.98371 10.2735 3.26634C10.2972 3.89334 10.621 4.49738 11.1958 4.82909C11.7705 5.16159 12.4553 5.13942 13.0103 4.8465C13.2605 4.71429 13.3768 4.67709 13.4592 4.66679C13.7193 4.63242 13.9824 4.70276 14.1907 4.86234C14.2429 4.90271 14.3094 4.97159 14.4163 5.12992C14.5263 5.293 14.653 5.51229 14.8414 5.83846C15.0298 6.16463 15.1557 6.38471 15.242 6.56046C15.3267 6.73225 15.3528 6.82409 15.3607 6.88979C15.3951 7.14991 15.3248 7.41302 15.1652 7.62129C15.1145 7.687 15.0243 7.76934 14.7852 7.91975C14.2532 8.25384 13.8922 8.8365 13.8922 9.49992C13.8922 10.1633 14.2532 10.746 14.7852 11.0801C15.0243 11.2305 15.1145 11.3128 15.1652 11.3785C15.3251 11.5868 15.3948 11.8496 15.3607 12.11C15.3528 12.1758 15.3259 12.2684 15.242 12.4394C15.1557 12.6159 15.0298 12.8352 14.8414 13.1614C14.653 13.4875 14.5255 13.7068 14.4163 13.8699C14.3094 14.0283 14.2429 14.0971 14.1907 14.1375C13.9824 14.2971 13.7193 14.3674 13.4592 14.333C13.3768 14.3228 13.2612 14.2855 13.0103 14.1533C12.4561 13.8604 11.7705 13.8383 11.1958 14.17C10.621 14.5025 10.2972 15.1065 10.2735 15.7335C10.2632 16.0161 10.2371 16.1357 10.2054 16.2117C10.1557 16.3318 10.0827 16.441 9.99078 16.533C9.89882 16.625 9.78963 16.6979 9.66946 16.7476C9.6085 16.773 9.51587 16.7959 9.32508 16.8094C9.12954 16.8228 8.87621 16.8228 8.49937 16.8228C8.12254 16.8228 7.86921 16.8228 7.67367 16.8094C7.48287 16.7959 7.39025 16.773 7.32929 16.7476C7.20912 16.6979 7.09993 16.625 7.00796 16.533C6.916 16.441 6.84307 16.3318 6.79333 16.2117C6.76167 16.1357 6.73554 16.0161 6.72525 15.7335C6.7015 15.1065 6.37771 14.5025 5.80296 14.1708C5.22821 13.8383 4.54342 13.8604 3.98846 14.1533C3.73829 14.2855 3.62192 14.3228 3.53958 14.333C3.27947 14.3674 3.01635 14.2971 2.80808 14.1375C2.75583 14.0971 2.68933 14.0283 2.58246 13.8699C2.43355 13.6381 2.29178 13.4018 2.15733 13.1614C1.96892 12.8352 1.84304 12.6151 1.75675 12.4394C1.67204 12.2676 1.64592 12.1758 1.638 12.11C1.60363 11.8499 1.67396 11.5868 1.83354 11.3785C1.88421 11.3128 1.97446 11.2305 2.21354 11.0801C2.74554 10.746 3.10654 10.1633 3.10654 9.49992C3.10654 8.8365 2.74554 8.25384 2.21354 7.91975C1.97446 7.76934 1.88421 7.687 1.83354 7.62129C1.67396 7.41302 1.60363 7.14991 1.638 6.88979C1.64592 6.82409 1.67283 6.73146 1.75675 6.56046C1.84304 6.38392 1.96892 6.16463 2.15733 5.83846C2.34575 5.51229 2.47321 5.293 2.58246 5.12992C2.68933 4.97159 2.75583 4.90271 2.80808 4.86234C3.01635 4.70276 3.27947 4.63242 3.53958 4.66679C3.62192 4.67709 3.7375 4.71429 3.98846 4.8465C4.54262 5.13942 5.22821 5.16159 5.80296 4.82909C6.37771 4.49738 6.7015 3.89334 6.72525 3.26634C6.73554 2.98371 6.76167 2.86417 6.79333 2.78817C6.89387 2.54513 7.08625 2.35275 7.32929 2.25221Z" fill="#121212" fill-opacity="0.6"/>
</svg>
