<svg width="13" height="13" viewBox="0 0 13 13" fill="none" xmlns="http://www.w3.org/2000/svg">
<path d="M6.5 12.75C5.52083 12.625 4.64583 12.375 3.875 12C3.10417 11.625 2.45042 11.1354 1.91375 10.5312C1.3775 9.92708 0.96875 9.22667 0.6875 8.43C0.40625 7.63333 0.265625 6.75042 0.265625 5.78125C1.41146 5.89583 2.38021 6.10417 3.17187 6.40625C3.96354 6.70833 4.60687 7.13542 5.10187 7.6875C5.59646 8.23958 5.95313 8.92979 6.17188 9.75812C6.39063 10.5865 6.5 11.5838 6.5 12.75ZM6.5 7.48438C6.26042 7.11979 5.93479 6.76042 5.52313 6.40625C5.11146 6.05208 4.635 5.72917 4.09375 5.4375C4.15625 5 4.26042 4.54688 4.40625 4.07812C4.55208 3.60938 4.72917 3.14854 4.9375 2.69563C5.14583 2.24229 5.38271 1.80729 5.64812 1.39062C5.91354 0.973958 6.1975 0.59375 6.5 0.25C6.80208 0.59375 7.08604 0.973958 7.35187 1.39062C7.61771 1.80729 7.85458 2.24208 8.0625 2.695C8.27083 3.14833 8.44792 3.60938 8.59375 4.07812C8.73958 4.54688 8.84375 5 8.90625 5.4375C8.36458 5.71875 7.88792 6.03646 7.47625 6.39062C7.06458 6.74479 6.73917 7.10938 6.5 7.48438ZM7.75 12.5C7.72917 11.7708 7.67437 11.0962 7.58562 10.4762C7.49687 9.85625 7.35896 9.27042 7.17187 8.71875C7.66146 7.875 8.33604 7.1875 9.19562 6.65625C10.0552 6.125 11.2348 5.83333 12.7344 5.78125C12.7448 7.42708 12.3046 8.84646 11.4137 10.0394C10.5229 11.2323 9.30167 12.0525 7.75 12.5Z" fill="black"/>
</svg>
