<svg width="20" height="22" viewBox="0 0 20 22" fill="none" xmlns="http://www.w3.org/2000/svg">
<path d="M0.75 12.516L1.497 12.58C1.47978 12.7721 1.38924 12.9502 1.24416 13.0772C1.09909 13.2043 0.910639 13.2706 0.717959 13.2624C0.525279 13.2541 0.343177 13.172 0.209478 13.033C0.0757788 12.894 0.000758622 12.7089 0 12.516H0.75ZM17.986 10.693L17.28 6.613L18.759 6.357L19.464 10.437L17.986 10.693ZM10.995 1.5H6.346V0H10.995V1.5ZM5.435 2.338L4.623 11.73L3.128 11.601L3.941 2.208L5.435 2.338ZM17.28 6.613C16.773 3.683 14.131 1.5 10.995 1.5V0C14.821 0 18.121 2.669 18.759 6.357L17.28 6.613ZM11.005 17.65L10.342 13.605L11.822 13.363L12.485 17.407L11.005 17.65ZM4.938 12.504L6.377 13.744L5.397 14.881L3.958 13.641L4.938 12.504ZM8.994 17.778L9.47 19.612L8.018 19.988L7.542 18.155L8.994 17.778ZM10.188 19.972L10.333 19.925L10.792 21.353L10.647 21.4L10.188 19.972ZM8.273 15.934C8.585 16.518 8.828 17.137 8.994 17.778L7.542 18.155C7.40529 17.6284 7.20657 17.1198 6.95 16.64L8.273 15.934ZM10.333 19.925C10.4757 19.8818 10.6051 19.8032 10.7093 19.6965C10.8135 19.5899 10.8891 19.4587 10.929 19.315L12.381 19.691C12.2777 20.0795 12.0778 20.4356 11.8 20.7261C11.5222 21.0167 11.1755 21.2323 10.792 21.353L10.333 19.925ZM9.47 19.612C9.48981 19.6841 9.52513 19.751 9.5735 19.808C9.62186 19.865 9.6821 19.9107 9.75 19.942L9.099 21.293C8.83482 21.1671 8.60126 20.9851 8.41457 20.7597C8.22788 20.5344 8.09255 20.271 8.018 19.988L9.47 19.612ZM9.75 19.942C9.88686 20.0074 10.0435 20.0181 10.188 19.972L10.647 21.4C10.1363 21.5637 9.58231 21.5254 9.099 21.293L9.75 19.942ZM11.904 11.766H17.084V13.266H11.904V11.766ZM2.469 1.344L1.497 12.58L0.00300002 12.451L0.973 1.215L2.469 1.344ZM1.5 1.237V12.516H0V1.237H1.5ZM0.973 1.215C0.969949 1.25134 0.97549 1.28792 0.987334 1.32241C0.999178 1.35691 1.01807 1.38856 1.0428 1.41536C1.06753 1.44216 1.09757 1.46353 1.131 1.4781C1.16443 1.49267 1.20053 1.50013 1.237 1.5V0C1.963 0 2.531 0.622 2.469 1.344L0.973 1.215ZM12.485 17.407C12.61 18.167 12.575 18.945 12.381 19.691L10.929 19.314C11.069 18.771 11.096 18.204 11.005 17.65L12.485 17.407ZM6.346 1.5C6.11685 1.50042 5.89619 1.58671 5.72754 1.74184C5.55889 1.89697 5.45451 2.10968 5.435 2.338L3.941 2.208C3.99303 1.60584 4.26888 1.04505 4.71411 0.636295C5.15933 0.227539 5.74159 0.000507786 6.346 0V1.5ZM6.377 13.744C7.057 14.33 7.789 15.027 8.274 15.934L6.95 16.641C6.604 15.992 6.053 15.445 5.397 14.881L6.377 13.744ZM19.464 10.437C19.5242 10.784 19.5078 11.14 19.416 11.48C19.3241 11.82 19.1591 12.1358 18.9323 12.4053C18.7056 12.6749 18.4227 12.8915 18.1034 13.0402C17.7841 13.1889 17.4362 13.2659 17.084 13.266V11.766C17.2175 11.7659 17.3495 11.7367 17.4705 11.6803C17.5915 11.6238 17.6988 11.5416 17.7847 11.4394C17.8707 11.3372 17.9332 11.2174 17.968 11.0885C18.0027 10.9595 18.0089 10.8246 17.986 10.693L19.464 10.437ZM1.237 1.5C1.30675 1.5 1.37365 1.47229 1.42297 1.42297C1.47229 1.37365 1.5 1.30675 1.5 1.237H0C0 0.555 0.553 0 1.237 0V1.5ZM10.342 13.605C10.3047 13.3784 10.3172 13.1464 10.3785 12.9252C10.4399 12.7039 10.5486 12.4986 10.6972 12.3235C10.8458 12.1485 11.0307 12.0079 11.2391 11.9114C11.4475 11.815 11.6744 11.766 11.904 11.766V13.266C11.854 13.266 11.814 13.311 11.822 13.363L10.342 13.605ZM4.623 11.73C4.61064 11.8748 4.63184 12.0205 4.68678 12.1551C4.74171 12.2896 4.82782 12.4092 4.938 12.504L3.958 13.641C3.66802 13.391 3.44156 13.0756 3.29726 12.721C3.15296 12.3663 3.09495 11.9825 3.128 11.601L4.623 11.73Z" fill="#FE8181"/>
</svg>
