<svg width="20" height="22" viewBox="0 0 20 22" fill="none" xmlns="http://www.w3.org/2000/svg">
<path d="M0.75 8.98402L1.497 8.92002C1.47978 8.72793 1.38924 8.54986 1.24416 8.42279C1.09909 8.29572 0.910639 8.22941 0.717959 8.23765C0.525279 8.24589 0.343177 8.32803 0.209478 8.46702C0.0757788 8.60601 0.000758622 8.79116 0 8.98402H0.75ZM17.986 10.807L17.28 14.887L18.759 15.143L19.464 11.063L17.986 10.807ZM10.995 20H6.346V21.5H10.995V20ZM5.435 19.163L4.623 9.77002L3.128 9.89902L3.941 19.292L5.435 19.163ZM17.28 14.887C16.773 17.817 14.131 20 10.995 20V21.5C14.821 21.5 18.121 18.831 18.759 15.143L17.28 14.887ZM11.005 3.85002L10.342 7.89502L11.822 8.13702L12.485 4.09302L11.005 3.85002ZM4.938 8.99602L6.377 7.75602L5.397 6.62002L3.96 7.86002L4.938 8.99602ZM8.994 3.72202L9.47 1.88802L8.018 1.51202L7.542 3.34502L8.994 3.72202ZM10.188 1.52802L10.333 1.57502L10.792 0.147016L10.647 0.100016L10.188 1.52802ZM8.273 5.56602C8.58537 4.98201 8.8274 4.36302 8.994 3.72202L7.542 3.34502C7.40528 3.87165 7.20656 4.38021 6.95 4.86002L8.273 5.56602ZM10.333 1.57502C10.4757 1.61826 10.6051 1.69685 10.7093 1.80349C10.8135 1.91013 10.8891 2.04137 10.929 2.18502L12.381 1.80902C12.2777 1.42052 12.0778 1.06445 11.8 0.773879C11.5222 0.483312 11.1755 0.267679 10.792 0.147016L10.333 1.57502ZM9.47 1.88802C9.48993 1.81599 9.5253 1.74916 9.57365 1.69218C9.622 1.63519 9.68218 1.58941 9.75 1.55802L9.099 0.207016C8.567 0.463016 8.167 0.937016 8.018 1.51202L9.47 1.88802ZM9.75 1.55802C9.88686 1.49265 10.0435 1.48192 10.188 1.52802L10.647 0.100016C10.1363 -0.0636643 9.58231 -0.025371 9.099 0.207016L9.75 1.55802ZM11.904 9.73402H17.084V8.23402H11.904V9.73402ZM2.469 20.156L1.497 8.92002L0.00300002 9.04902L0.973 20.285L2.469 20.156ZM1.5 20.263V8.98402H0V20.263H1.5ZM0.973 20.285C0.969949 20.2487 0.97549 20.2121 0.987334 20.1776C0.999178 20.1431 1.01807 20.1115 1.0428 20.0847C1.06753 20.0579 1.09757 20.0365 1.131 20.0219C1.16443 20.0073 1.20053 19.9999 1.237 20V21.5C1.963 21.5 2.531 20.878 2.469 20.156L0.973 20.285ZM12.485 4.09302C12.6097 3.33274 12.5743 2.55481 12.381 1.80902L10.929 2.18602C11.0699 2.72934 11.0958 3.29611 11.005 3.85002L12.485 4.09302ZM6.346 20C6.11701 19.9996 5.89648 19.9135 5.72785 19.7585C5.55923 19.6036 5.45475 19.3912 5.435 19.163L3.941 19.292C3.99303 19.8942 4.26888 20.455 4.71411 20.8637C5.15933 21.2725 5.74159 21.4995 6.346 21.5V20ZM6.377 7.75602C7.057 7.17002 7.789 6.47302 8.274 5.56602L6.95 4.86002C6.604 5.50902 6.053 6.05602 5.397 6.62002L6.377 7.75602ZM19.464 11.063C19.5242 10.716 19.5078 10.36 19.416 10.02C19.3241 9.68 19.1591 9.36418 18.9323 9.09467C18.7056 8.82516 18.4227 8.60848 18.1034 8.45982C17.7841 8.31115 17.4362 8.23408 17.084 8.23402V9.73402C17.651 9.73402 18.084 10.246 17.986 10.807L19.464 11.063ZM1.237 20C1.383 20 1.5 20.118 1.5 20.263H0C0 20.945 0.553 21.5 1.237 21.5V20ZM10.342 7.89502C10.3047 8.1216 10.3172 8.35357 10.3785 8.57486C10.4399 8.79614 10.5486 9.00143 10.6972 9.17648C10.8458 9.35154 11.0307 9.49217 11.2391 9.58861C11.4475 9.68506 11.6744 9.73402 11.904 9.73402V8.23402C11.8918 8.23407 11.8797 8.23243 11.8687 8.22729C11.8576 8.22215 11.8478 8.21464 11.84 8.20528C11.8321 8.19592 11.8265 8.18495 11.8234 8.17315C11.8203 8.16136 11.8198 8.14902 11.822 8.13702L10.342 7.89502ZM4.623 9.77002C4.61064 9.6252 4.63184 9.47952 4.68678 9.34496C4.74171 9.2104 4.82782 9.0908 4.938 8.99602L3.958 7.85902C3.66802 8.10905 3.44156 8.42437 3.29726 8.77903C3.15296 9.13369 3.09495 9.51755 3.128 9.89902L4.623 9.77002Z" fill="#04BF5A"/>
</svg>
