<svg width="13" height="18" viewBox="0 0 13 18" fill="none" xmlns="http://www.w3.org/2000/svg">
<path d="M6.5 1.28571C7.14279 1.28571 7.77114 1.47423 8.3056 1.82742C8.84006 2.18061 9.25662 2.68261 9.50261 3.26995C9.74859 3.85728 9.81295 4.50357 9.68755 5.12708C9.56215 5.75059 9.25262 6.32332 8.7981 6.77284C8.34358 7.22237 7.76448 7.5285 7.13404 7.65252C6.50361 7.77655 5.85014 7.71289 5.25628 7.46961C4.66242 7.22633 4.15484 6.81435 3.79772 6.28576C3.44061 5.75717 3.25 5.13573 3.25 4.5C3.25 3.64752 3.59241 2.82995 4.2019 2.22716C4.8114 1.62436 5.63805 1.28571 6.5 1.28571ZM6.5 0C5.60009 0 4.7204 0.26392 3.97216 0.758387C3.22391 1.25285 2.64073 1.95566 2.29635 2.77792C1.95197 3.60019 1.86186 4.50499 2.03743 5.37791C2.21299 6.25082 2.64634 7.05264 3.28266 7.68198C3.91899 8.31132 4.72973 8.7399 5.61234 8.91353C6.49495 9.08717 7.40981 8.99805 8.24121 8.65746C9.07261 8.31686 9.78323 7.74009 10.2832 7.00007C10.7831 6.26004 11.05 5.39002 11.05 4.5C11.05 3.30653 10.5706 2.16193 9.71734 1.31802C8.86405 0.474106 7.70673 0 6.5 0ZM13 18H11.7V14.7857C11.7 14.3636 11.6159 13.9456 11.4526 13.5557C11.2893 13.1657 11.0499 12.8113 10.7481 12.5129C10.4463 12.2144 10.088 11.9776 9.69372 11.8161C9.29941 11.6546 8.8768 11.5714 8.45 11.5714H4.55C3.68805 11.5714 2.8614 11.9101 2.2519 12.5129C1.64241 13.1157 1.3 13.9332 1.3 14.7857V18H0V14.7857C0 13.5922 0.479374 12.4476 1.33266 11.6037C2.18595 10.7598 3.34326 10.2857 4.55 10.2857H8.45C9.65673 10.2857 10.814 10.7598 11.6673 11.6037C12.5206 12.4476 13 13.5922 13 14.7857V18Z" fill="#121212" fill-opacity="0.6"/>
</svg>
