<svg width="14" height="16" viewBox="0 0 14 16" fill="none" xmlns="http://www.w3.org/2000/svg">
<path d="M0.823529 8C0.605116 8 0.395648 8.08429 0.241206 8.23431C0.0867646 8.38434 0 8.58783 0 8.8V15.2C0 15.4122 0.0867646 15.6157 0.241206 15.7657C0.395648 15.9157 0.605116 16 0.823529 16C1.04194 16 1.25141 15.9157 1.40585 15.7657C1.56029 15.6157 1.64706 15.4122 1.64706 15.2V8.8C1.64706 8.58783 1.56029 8.38434 1.40585 8.23431C1.25141 8.08429 1.04194 8 0.823529 8ZM4.94118 0C4.72276 0 4.5133 0.0842854 4.35885 0.234315C4.20441 0.384344 4.11765 0.587827 4.11765 0.8V15.2C4.11765 15.4122 4.20441 15.6157 4.35885 15.7657C4.5133 15.9157 4.72276 16 4.94118 16C5.15959 16 5.36906 15.9157 5.5235 15.7657C5.67794 15.6157 5.76471 15.4122 5.76471 15.2V0.8C5.76471 0.587827 5.67794 0.384344 5.5235 0.234315C5.36906 0.0842854 5.15959 0 4.94118 0ZM13.1765 11.2C12.9581 11.2 12.7486 11.2843 12.5941 11.4343C12.4397 11.5843 12.3529 11.7878 12.3529 12V15.2C12.3529 15.4122 12.4397 15.6157 12.5941 15.7657C12.7486 15.9157 12.9581 16 13.1765 16C13.3949 16 13.6044 15.9157 13.7588 15.7657C13.9132 15.6157 14 15.4122 14 15.2V12C14 11.7878 13.9132 11.5843 13.7588 11.4343C13.6044 11.2843 13.3949 11.2 13.1765 11.2ZM9.05882 4.8C8.84041 4.8 8.63094 4.88429 8.4765 5.03431C8.32206 5.18434 8.23529 5.38783 8.23529 5.6V15.2C8.23529 15.4122 8.32206 15.6157 8.4765 15.7657C8.63094 15.9157 8.84041 16 9.05882 16C9.27724 16 9.4867 15.9157 9.64115 15.7657C9.79559 15.6157 9.88235 15.4122 9.88235 15.2V5.6C9.88235 5.38783 9.79559 5.18434 9.64115 5.03431C9.4867 4.88429 9.27724 4.8 9.05882 4.8Z" fill="#121212" fill-opacity="0.6"/>
</svg>
