<svg width="15" height="12" viewBox="0 0 15 12" fill="none" xmlns="http://www.w3.org/2000/svg">
<path d="M3.96875 7.59375L2.65625 6.25C3.27083 5.63542 3.99229 5.14854 4.82062 4.78937C5.64896 4.43021 6.54208 4.25042 7.5 4.25C8.45833 4.25 9.35167 4.43229 10.18 4.79688C11.0083 5.16146 11.7296 5.65625 12.3438 6.28125L11.0312 7.59375C10.5729 7.13542 10.0417 6.77604 9.4375 6.51562C8.83333 6.25521 8.1875 6.125 7.5 6.125C6.8125 6.125 6.16667 6.25521 5.5625 6.51562C4.95833 6.77604 4.42708 7.13542 3.96875 7.59375ZM1.3125 4.9375L0 3.625C0.958333 2.64583 2.07812 1.88021 3.35938 1.32812C4.64062 0.776042 6.02083 0.5 7.5 0.5C8.97917 0.5 10.3594 0.776042 11.6406 1.32812C12.9219 1.88021 14.0417 2.64583 15 3.625L13.6875 4.9375C12.8854 4.13542 11.9556 3.50771 10.8981 3.05437C9.84062 2.60104 8.70792 2.37458 7.5 2.375C6.29167 2.375 5.15875 2.60167 4.10125 3.055C3.04375 3.50833 2.11417 4.13583 1.3125 4.9375ZM7.5 11.125L9.70312 8.90625C9.42188 8.625 9.09375 8.40354 8.71875 8.24187C8.34375 8.08021 7.9375 7.99958 7.5 8C7.0625 8 6.65625 8.08083 6.28125 8.2425C5.90625 8.40417 5.57812 8.62542 5.29688 8.90625L7.5 11.125Z" fill="black"/>
</svg>
